<?xml version="1.0" encoding="iso-8859-1"?>
<!-- Generator: Adobe Illustrator 19.0.0, SVG Export Plug-In . SVG Version: 6.00 Build 0)  -->
<svg version="1.1" id="Capa_1" xmlns="http://www.w3.org/2000/svg" xmlns:xlink="http://www.w3.org/1999/xlink" x="0px" y="0px"
	 viewBox="0 0 512 512" style="enable-background:new 0 0 512 512;" xml:space="preserve">
<path style="fill:#FFA439;" d="M505.984,131.572c0.018,0.588-0.009,1.175-0.088,1.754c-0.921,8.956-8.456,15.762-17.455,15.789
	h-35.086c-9.675-0.026-17.517-7.868-17.543-17.543v-8.771c0.026-9.675,7.868-17.517,17.543-17.543h35.086
	c9.675,0.026,17.517,7.868,17.543,17.543V131.572z"/>
<path style="fill:#F0C546;" d="M497.651,96.223c5.359,5.807,8.333,13.412,8.333,21.315v5.263
	c-0.026-9.675-7.868-17.517-17.543-17.543h-35.086c-9.675,0.026-17.517,7.868-17.543,17.543v8.771
	c0.026,9.675,7.868,17.517,17.543,17.543h17.543v0.263l-19.824-0.175c-9.736-0.053-19.017-4.149-25.613-11.315l-14.736-16.14
	l-46.927-51.225l-16.14-17.631c-11.771-12.868-10.885-32.84,1.982-44.612c5.807-5.316,13.394-8.263,21.262-8.28h24.736
	c8.85-0.018,17.297,3.71,23.244,10.263L497.651,96.223z"/>
<path style="fill:#FFD24A;" d="M410.726,121.748l-2.281,2.105c-13.885,161.904-143.203,289.81-305.247,301.914l-53.331,4.035v3.245
	C34.675,427.39,20.001,420.443,6.01,412.26v-43.857l53.331-3.947c158.983-11.973,286.906-135.467,304.458-293.932L410.726,121.748z"
	/>
<path style="fill:#F0C546;" d="M460.259,149.282v26.148c0.079,60.541-16.026,120.011-46.656,172.237
	c-53.296,89.706-150.22,144.352-254.566,143.536c-37.34-0.053-74.347-6.991-109.17-20.473v2.93
	c43.059,25.095,91.995,38.323,141.835,38.331c96.714,0.754,186.552-49.91,235.953-133.063
	c28.385-48.41,43.322-103.521,43.243-159.641v-69.909L460.259,149.282z"/>
<path style="fill:#FFD24A;" d="M413.603,347.64c30.63-52.217,46.734-111.678,46.656-172.21v-26.148l-9.184-0.079
	c-9.736-0.053-19.017-4.149-25.613-11.315l-14.736-16.14l-2.281,2.105c-13.885,161.904-143.203,289.81-305.247,301.914
	l-53.331,4.035v40.928c34.823,13.482,71.83,20.42,109.17,20.473C263.383,492.019,360.316,437.355,413.603,347.64z"/>
<path style="fill:#F0C546;" d="M49.867,421.031l52.673-3.982c158.027-11.192,284.24-136.037,297.16-293.932l1.026-25.165
	l16.455,26.604c-13.605,166.5-146.685,298.151-313.326,309.958l-45.217,3.421l-8.771,0.325V421.031z"/>
<g>
</g>
<g>
</g>
<g>
</g>
<g>
</g>
<g>
</g>
<g>
</g>
<g>
</g>
<g>
</g>
<g>
</g>
<g>
</g>
<g>
</g>
<g>
</g>
<g>
</g>
<g>
</g>
<g>
</g>
</svg>
