<?xml version="1.0" encoding="iso-8859-1"?>
<!-- Generator: Adobe Illustrator 19.0.0, SVG Export Plug-In . SVG Version: 6.00 Build 0)  -->
<svg version="1.1" id="Capa_1" xmlns="http://www.w3.org/2000/svg" xmlns:xlink="http://www.w3.org/1999/xlink" x="0px" y="0px"
	 viewBox="0 0 512.004 512.004" style="enable-background:new 0 0 512.004 512.004;" xml:space="preserve">
<g>
	<path style="fill:#713520;" d="M125.89,381.892c-4.788,0-8.674-3.886-8.674-8.674c0-107.343,35.998-222.926,101.375-325.437
		c9.307-14.59,19.552-29.466,30.472-44.082c2.871-3.834,8.31-4.615,12.144-1.752c3.834,2.862,4.615,8.31,1.752,12.144
		c0,0.009-0.009,0.009-0.009,0.017c-10.652,14.26-20.653,28.737-29.726,43.015c-63.616,99.761-98.651,212.005-98.651,316.094
		C134.564,378.006,130.687,381.892,125.89,381.892z"/>
	<path style="fill:#713520;" d="M379.175,378.361c-45.565-61.734-79.464-131.274-100.039-205.187l-5.612-27.558l17.001-3.47
		l5.465,26.951c20.029,71.666,52.947,139.09,97.15,198.95L379.175,378.361z"/>
</g>
<path style="fill:#C22955;" d="M469.386,357.604c-1.249-0.937-2.602-1.665-3.929-2.481c1.258,4.476,1.908,9.108,1.926,13.757v16.394
	c-0.009,11.398-2.03,22.709-5.985,33.395c-3.921,10.721-9.741,20.653-17.175,29.319c-18.346,21.338-45.071,33.621-73.21,33.656
	h-15.44c-23.706-0.017-46.563-8.787-64.189-24.643c16.004,33.552,49.842,54.933,87.01,55.003h15.44
	c28.139-0.035,54.864-12.317,73.21-33.656c7.434-8.665,13.254-18.597,17.175-29.319c3.955-10.687,5.976-21.998,5.985-33.395V399.24
	C490.204,382.855,482.493,367.432,469.386,357.604z"/>
<path style="fill:#DC2F60;" d="M355.573,481.644h15.44c28.139-0.035,54.864-12.317,73.21-33.656
	c7.434-8.665,13.254-18.597,17.175-29.319c3.955-10.687,5.976-21.998,5.985-33.395v-16.394c-0.017-4.649-0.668-9.281-1.926-13.757
	c-8.18-5.135-17.635-7.876-27.298-7.928h-4.424c-13.827-0.017-27.098,5.473-36.865,15.266l-10.756,10.756l-10.669-10.669
	c-20.436-20.454-53.589-20.471-74.042-0.035c-0.009,0.009-0.026,0.026-0.035,0.035l-3.99,3.99
	c-9.819,9.828-15.345,23.143-15.353,37.039v12.057c0.009,14.312,3.192,28.443,9.325,41.367
	c17.626,15.856,40.482,24.626,64.189,24.643H355.573z"/>
<path style="fill:#C22955;" d="M213.377,361.161c0.408,2.55,0.625,5.135,0.642,7.72v16.394c-0.009,11.398-2.03,22.709-5.985,33.395
	c-3.921,10.721-9.741,20.653-17.175,29.319c-18.346,21.338-45.071,33.621-73.21,33.656h-15.44
	c-28.13-0.061-54.847-12.343-73.21-33.656c-0.937-1.093-1.735-2.264-2.602-3.392c12.621,40.075,49.755,67.346,91.772,67.407h15.44
	c28.139-0.035,54.864-12.317,73.21-33.656c7.434-8.665,13.254-18.597,17.175-29.319c3.955-10.687,5.976-21.998,5.985-33.395V399.24
	C229.971,384.789,223.96,370.997,213.377,361.161z"/>
<path style="fill:#DC2F60;" d="M61.961,472.797c12.621,5.812,26.352,8.83,40.248,8.848h15.44
	c28.139-0.035,54.864-12.317,73.21-33.656c7.434-8.665,13.254-18.597,17.175-29.319c3.955-10.687,5.976-21.998,5.985-33.395v-16.394
	c-0.017-2.585-0.234-5.17-0.642-7.72c-9.594-9.012-22.275-14.017-35.443-13.965h-4.424c-13.827-0.017-27.098,5.473-36.865,15.266
	l-10.756,10.756l-10.669-10.669c-20.436-20.454-53.589-20.471-74.042-0.035c-0.009,0.009-0.026,0.026-0.035,0.035l-3.99,3.99
	c-9.819,9.828-15.345,23.143-15.353,37.039v12.057c0.026,9.828,1.561,19.595,4.554,28.963c0.867,1.128,1.735,2.299,2.602,3.392
	C38.047,458.537,49.306,466.994,61.961,472.797z"/>
<path style="fill:#399D4D;" d="M256.522,8.904c81.233,0.286,146.94,66.227,146.94,147.46c-19.404,0.017-38.617-3.782-56.555-11.19
	c-17.262-7.226-33.005-17.643-46.407-30.706h-1.128v-1.648C299.416,73.873,284.002,36.505,256.522,8.904z"/>
<path style="fill:#307E45;" d="M256.176,8.904h0.347c27.48,27.601,42.885,64.969,42.85,103.916v1.648
	c-0.226,19.387-4.268,38.548-11.884,56.382c-7.373,17.279-18.008,32.97-31.314,46.233c-43.284-43.275-55.324-108.791-30.273-164.635
	c9.542-15.006,19.578-29.518,30.099-43.544C256.002,8.904,256.176,8.904,256.176,8.904z"/>
<path style="fill:#20522D;" d="M264.85,164.691h-17.348V8.904c-0.009-3.548,2.099-6.766,5.352-8.188
	c3.209-1.397,6.948-0.711,9.455,1.735l113.111,113.111l-12.265,12.265l-98.304-98.33V164.691z"/>
<g>
</g>
<g>
</g>
<g>
</g>
<g>
</g>
<g>
</g>
<g>
</g>
<g>
</g>
<g>
</g>
<g>
</g>
<g>
</g>
<g>
</g>
<g>
</g>
<g>
</g>
<g>
</g>
<g>
</g>
</svg>
