<?xml version="1.0" encoding="iso-8859-1"?>
<!-- Generator: Adobe Illustrator 19.0.0, SVG Export Plug-In . SVG Version: 6.00 Build 0)  -->
<svg version="1.1" id="Capa_1" xmlns="http://www.w3.org/2000/svg" xmlns:xlink="http://www.w3.org/1999/xlink" x="0px" y="0px"
	 viewBox="0 0 512 512" style="enable-background:new 0 0 512 512;" xml:space="preserve">
<path style="fill:#80386A;" d="M187.733,196.267c-0.026,14.737,4.736,29.082,13.568,40.875l-13.568,10.325
	c-21.538-0.017-41.813,10.138-54.699,27.392l-13.568-10.325c-37.7,0-68.267-30.566-68.267-68.267S81.766,128,119.467,128
	S187.733,158.566,187.733,196.267z"/>
<g>
	<path style="fill:#733360;" d="M192.307,459.622c13.44,35.226,52.89,52.89,88.115,39.45c35.226-13.44,52.89-52.89,39.45-88.115
		c-3.831-10.052-9.993-19.055-17.963-26.274c-1.101-0.998-2.27-1.929-3.413-2.85C267.102,412.817,231.322,439.031,192.307,459.622z"
		/>
	<path style="fill:#733360;" d="M425.813,136.704c-7.432,44.587-21.615,87.774-42.044,128.094l8.764-0.265
		c37.291,5.632,68.267-30.549,68.267-68.267C460.8,171.537,447.411,148.745,425.813,136.704z"/>
	<path style="fill:#733360;" d="M298.47,381.833c1.169,0.922,2.338,1.852,3.413,2.85L324.267,384
		c37.683,0.026,68.241-30.507,68.267-68.181c0.009-14.857-4.83-29.303-13.781-41.156C357.478,314.18,330.419,350.302,298.47,381.833
		z"/>
</g>
<g>
	<path style="fill:#80386A;" d="M256,366.933c-37.641-0.068-68.198,30.396-68.267,68.028c-0.017,8.431,1.536,16.794,4.574,24.661
		c39.006-20.591,74.778-46.805,106.163-77.79C286.413,372.19,271.437,366.933,256,366.933z"/>
	<path style="fill:#80386A;" d="M392.533,128c-37.231-0.478-67.789,29.321-68.267,66.551c-0.009,0.572-0.009,1.143,0,1.715
		C324.267,158.566,293.7,128,256,128s-68.267,30.566-68.267,68.267S218.3,264.533,256,264.533l13.568,10.325
		c22.571-30.199,65.348-36.386,95.548-13.815c1.749,1.306,3.439,2.705,5.06,4.173l13.653-0.418
		c20.412-40.32,34.569-83.516,41.984-128.094C415.65,130.995,404.19,128,392.533,128z"/>
	<path style="fill:#80386A;" d="M324.267,247.467c-37.683-0.026-68.241,30.498-68.267,68.181c0,0.026,0,0.06,0,0.085
		c0.026,23.868-12.433,46.012-32.853,58.368l0.512,1.024c24.021-12.996,53.487-10.359,74.812,6.707
		c31.949-31.531,59.008-67.652,80.282-107.17C365.901,257.51,345.702,247.433,324.267,247.467z"/>
	<path style="fill:#80386A;" d="M201.301,237.141c12.885,17.254,33.161,27.409,54.699,27.392l13.568,10.325
		c-8.832,11.793-13.594,26.138-13.568,40.875c0,37.7-30.566,68.267-68.267,68.267s-68.267-30.566-68.267-68.267
		s30.566-68.267,68.267-68.267L201.301,237.141z"/>
</g>
<g>
	<path style="fill:#662D55;" d="M256,512c-42.419,0-76.8-34.381-76.8-76.8s34.381-76.8,76.8-76.8
		c19.098,0,37.513,7.117,51.652,19.959l0,0c31.394,28.527,33.715,77.099,5.197,108.484C298.283,502.869,277.641,512,256,512z
		 M256,375.467c-32.99-0.009-59.742,26.735-59.742,59.725s26.735,59.742,59.725,59.742s59.742-26.735,59.742-59.725
		c0-16.828-7.091-32.879-19.55-44.203l0,0C285.193,380.996,270.857,375.458,256,375.467z"/>
	<path style="fill:#662D55;" d="M187.733,392.533c-42.419,0-76.8-34.381-76.8-76.8s34.381-76.8,76.8-76.8V256
		C154.743,256,128,282.743,128,315.733s26.743,59.733,59.733,59.733s59.733-26.743,59.733-59.733h17.067
		C264.533,358.153,230.153,392.533,187.733,392.533z"/>
	<path style="fill:#662D55;" d="M119.467,273.067c-42.419,0-76.8-34.381-76.8-76.8s34.381-76.8,76.8-76.8s76.8,34.381,76.8,76.8
		H179.2c0-32.99-26.743-59.733-59.733-59.733s-59.733,26.743-59.733,59.733S86.477,256,119.467,256V273.067z"/>
	<path style="fill:#662D55;" d="M400.213,273.638c-2.987,0.009-5.965-0.213-8.917-0.666l2.56-16.879
		c13.218,1.809,26.556-2.321,36.437-11.29c13.858-12.339,21.845-29.978,21.973-48.538c-0.034-32.973-26.761-59.699-59.733-59.733
		c-16.486,0.026-32.256,6.707-43.75,18.526c-10.701,10.88-16.478,25.668-15.983,40.917l-17.067,0.58
		c-0.666-19.883,6.844-39.168,20.779-53.359c14.711-15.138,34.91-23.697,56.021-23.731c42.394,0.051,76.749,34.406,76.8,76.8
		c-0.068,23.543-10.249,45.926-27.955,61.44C430.029,267.81,415.411,273.468,400.213,273.638z"/>
	<path style="fill:#662D55;" d="M332.8,196.267h-17.067c0-32.99-26.743-59.733-59.733-59.733s-59.733,26.743-59.733,59.733H179.2
		c0-42.419,34.381-76.8,76.8-76.8S332.8,153.847,332.8,196.267z"/>
	<path style="fill:#662D55;" d="M256,273.067c-24.209-0.06-46.985-11.469-61.534-30.814c-9.95-13.261-15.309-29.406-15.266-45.986
		h17.067C196.267,229.257,223.01,256,256,256V273.067z"/>
	<path style="fill:#662D55;" d="M324.267,392.533v-17.067c32.99,0,59.733-26.743,59.733-59.733S357.257,256,324.267,256
		s-59.733,26.743-59.733,59.733h-17.067c-0.043-16.58,5.316-32.717,15.258-45.978c25.395-33.971,73.523-40.934,107.494-15.539
		s40.934,73.523,15.539,107.494C371.268,381.099,348.476,392.525,324.267,392.533z"/>
</g>
<path style="fill:#713520;" d="M264.533,128h-17.067c0.077-70.656,57.344-127.923,128-128H384v17.067h-8.533
	C314.232,17.135,264.602,66.765,264.533,128z"/>
<g>
</g>
<g>
</g>
<g>
</g>
<g>
</g>
<g>
</g>
<g>
</g>
<g>
</g>
<g>
</g>
<g>
</g>
<g>
</g>
<g>
</g>
<g>
</g>
<g>
</g>
<g>
</g>
<g>
</g>
</svg>
