<?xml version="1.0" encoding="iso-8859-1"?>
<!-- Generator: Adobe Illustrator 19.0.0, SVG Export Plug-In . SVG Version: 6.00 Build 0)  -->
<svg version="1.1" id="Capa_1" xmlns="http://www.w3.org/2000/svg" xmlns:xlink="http://www.w3.org/1999/xlink" x="0px" y="0px"
	 viewBox="0 0 512 512" style="enable-background:new 0 0 512 512;" xml:space="preserve">
<path style="fill:#E69433;" d="M159.945,487.33c96.623,53.045,217.95,17.728,270.995-78.895
	c26.527-48.324,31.898-105.465,14.821-157.876C384.021,362.931,281.836,447.579,159.945,487.33z"/>
<path style="fill:#FFA439;" d="M445.761,250.559c-26.475-81.229-101.725-136.582-187.154-137.667
	c-0.868-0.087-1.736-0.087-2.603-0.087c-110.229,0-199.58,89.351-199.58,199.58c0,72.838,39.682,139.897,103.521,174.945
	C281.836,447.579,384.021,362.931,445.761,250.559z"/>
<path style="fill:#307E45;" d="M264.681,156.193h-17.355v-17.355c-0.026-9.311,0.911-18.596,2.785-27.716
	C263.423,46.537,320.216,0.156,386.164,0v17.355c-57.705,0.139-107.409,40.732-119.054,97.256c-1.64,7.975-2.447,16.088-2.43,24.227
	C264.681,138.838,264.681,156.193,264.681,156.193z"/>
<g>
	<path style="fill:#B85F3E;" d="M256.004,199.58c-18.578,0.035-36.402-7.341-49.522-20.487l12.27-12.27
		c20.591,20.539,53.913,20.539,74.504,0l12.27,12.27C292.397,192.239,274.573,199.614,256.004,199.58z"/>
	<rect x="308.068" y="433.869" style="fill:#B85F3E;" width="17.355" height="17.355"/>
	<rect x="334.1" y="399.159" style="fill:#B85F3E;" width="17.355" height="17.355"/>
	<rect x="377.487" y="373.127" style="fill:#B85F3E;" width="17.355" height="17.355"/>
	<rect x="221.294" y="407.837" style="fill:#B85F3E;" width="17.355" height="17.355"/>
	<rect x="264.681" y="425.191" style="fill:#B85F3E;" width="17.355" height="17.355"/>
	<rect x="229.972" y="459.901" style="fill:#B85F3E;" width="17.355" height="17.355"/>
</g>
<g>
</g>
<g>
</g>
<g>
</g>
<g>
</g>
<g>
</g>
<g>
</g>
<g>
</g>
<g>
</g>
<g>
</g>
<g>
</g>
<g>
</g>
<g>
</g>
<g>
</g>
<g>
</g>
<g>
</g>
</svg>
