<?xml version="1.0" encoding="iso-8859-1"?>
<!-- Generator: Adobe Illustrator 19.0.0, SVG Export Plug-In . SVG Version: 6.00 Build 0)  -->
<svg version="1.1" id="Capa_1" xmlns="http://www.w3.org/2000/svg" xmlns:xlink="http://www.w3.org/1999/xlink" x="0px" y="0px"
	 viewBox="0 0 511.997 511.997" style="enable-background:new 0 0 511.997 511.997;" xml:space="preserve">
<path style="fill:#BA3637;" d="M189.525,464.638l7.629,13.149c5.806,10.094,14.121,18.53,24.128,24.484v-16.239h17.358v23.625
	c11.361,3.02,23.303,3.116,34.717,0.295v-23.92h17.358v16.959c10.563-6.041,19.32-14.807,25.343-25.378L426.37,286.325
	c8.94-15.353,13.756-32.746,14.008-50.513C385.656,338.738,297.034,419.585,189.525,464.638z"/>
<path style="fill:#D83E40;" d="M440.378,235.812c0.764-57.56-45.279-104.853-102.839-105.616c-0.477-0.009-0.955-0.009-1.432-0.009
	H176.411c-57.551,0.009-104.202,46.659-104.193,104.21c0,18.322,4.834,36.322,14.017,52.188l103.282,178.053
	C297.025,419.585,385.656,338.738,440.378,235.812z"/>
<path d="M221.282,486.032v16.239c5.416,3.255,11.257,5.746,17.358,7.386v-23.625H221.282z"/>
<path d="M273.357,486.032v23.92c6.075-1.501,11.916-3.845,17.358-6.943v-16.976H273.357z"/>
<path style="fill:#307E45;" d="M73.91,31.939c60.502-18.573,125.726,7.976,156.051,63.531L255.999,0l26.037,95.471l1.823-2.864
	c34.638-54.427,101.876-78.295,163.081-57.89l-36.279,9.026c-40.905,10.259-71.316,44.593-76.55,86.444H177.886
	c-5.234-41.851-35.645-76.186-76.55-86.444l-36.279-9.026L73.91,31.939z"/>
<rect x="117.132" y="173.583" width="17.358" height="26.037"/>
<rect x="169.207" y="173.583" width="17.358" height="26.037"/>
<rect x="221.282" y="173.583" width="17.358" height="26.037"/>
<rect x="273.357" y="173.583" width="17.358" height="26.037"/>
<rect x="325.432" y="173.583" width="17.358" height="26.037"/>
<rect x="377.507" y="173.583" width="17.358" height="26.037"/>
<rect x="117.132" y="277.733" width="17.358" height="26.037"/>
<rect x="169.207" y="277.733" width="17.358" height="26.037"/>
<rect x="221.282" y="277.733" width="17.358" height="26.037"/>
<rect x="273.357" y="277.733" width="17.358" height="26.037"/>
<rect x="325.432" y="277.733" width="17.358" height="26.037"/>
<rect x="377.507" y="277.733" width="17.358" height="26.037"/>
<rect x="169.207" y="381.882" width="17.358" height="26.037"/>
<rect x="221.282" y="381.882" width="17.358" height="26.037"/>
<rect x="273.357" y="381.882" width="17.358" height="26.037"/>
<rect x="325.432" y="381.882" width="17.358" height="26.037"/>
<rect x="91.095" y="225.658" width="17.358" height="26.037"/>
<rect x="143.17" y="225.658" width="17.358" height="26.037"/>
<rect x="195.245" y="225.658" width="17.358" height="26.037"/>
<rect x="247.319" y="225.658" width="17.358" height="26.037"/>
<rect x="299.394" y="225.658" width="17.358" height="26.037"/>
<rect x="351.469" y="225.658" width="17.358" height="26.037"/>
<rect x="403.579" y="225.658" width="17.358" height="26.037"/>
<rect x="143.17" y="329.807" width="17.358" height="26.037"/>
<rect x="195.245" y="329.807" width="17.358" height="26.037"/>
<rect x="247.319" y="329.807" width="17.358" height="26.037"/>
<rect x="299.394" y="329.807" width="17.358" height="26.037"/>
<rect x="195.245" y="433.957" width="17.358" height="26.037"/>
<rect x="247.319" y="433.957" width="17.358" height="26.037"/>
<rect x="299.394" y="433.957" width="17.358" height="26.037"/>
<rect x="351.469" y="329.807" width="17.358" height="26.037"/>
<g>
</g>
<g>
</g>
<g>
</g>
<g>
</g>
<g>
</g>
<g>
</g>
<g>
</g>
<g>
</g>
<g>
</g>
<g>
</g>
<g>
</g>
<g>
</g>
<g>
</g>
<g>
</g>
<g>
</g>
</svg>
