<?xml version="1.0" encoding="iso-8859-1"?>
<!-- Generator: Adobe Illustrator 19.0.0, SVG Export Plug-In . SVG Version: 6.00 Build 0)  -->
<svg version="1.1" id="Capa_1" xmlns="http://www.w3.org/2000/svg" xmlns:xlink="http://www.w3.org/1999/xlink" x="0px" y="0px"
	 viewBox="0 0 512.001 512.001" style="enable-background:new 0 0 512.001 512.001;" xml:space="preserve">
<path style="fill:#F7CE00;" d="M512.001,93.661c0-51.712-41.922-93.634-93.634-93.634h-1.651
	c-23.852-0.009-46.804,9.101-64.168,25.45L220.691,150.096v97.103h176.552l87.331-87.331
	C502.141,142.31,512.01,118.493,512.001,93.661z"/>
<path style="fill:#D03300;" d="M220.691,285.299c0,20.842-8.192,40.854-22.81,55.711L51.828,489.508
	c38.603,32.15,95.373,29.511,130.825-6.091l205.762-200.907h61.793l-35.31-35.31H220.691V285.299z"/>
<path style="fill:#F09221;" d="M220.691,285.299V132.44l-35.31-35.31v70.621L25.151,333.215
	c-34.772,38.365-33.315,97.262,3.293,133.87l14.08,14.045l4.802,4.511c1.448,1.359,2.984,2.569,4.502,3.831L197.88,341.01
	C212.499,326.153,220.691,306.141,220.691,285.299z"/>
<g>
	
		<rect x="379.587" y="31.684" transform="matrix(-0.7071 0.7071 -0.7071 -0.7071 694.2962 -199.2538)" style="fill:#FFF3B0;" width="17.655" height="24.964"/>
	
		<rect x="353.102" y="58.214" transform="matrix(-0.7071 0.7071 -0.7071 -0.7071 667.8422 -135.2369)" style="fill:#FFF3B0;" width="17.655" height="24.964"/>
	
		<rect x="326.613" y="84.625" transform="matrix(-0.7071 0.7071 -0.7071 -0.7071 641.2981 -71.4197)" style="fill:#FFF3B0;" width="17.655" height="24.964"/>
	
		<rect x="300.139" y="111.131" transform="matrix(-0.7071 0.7071 -0.7071 -0.7071 614.8467 -7.4517)" style="fill:#FFF3B0;" width="17.655" height="24.964"/>
	
		<rect x="273.648" y="137.619" transform="matrix(-0.7071 0.7071 -0.7071 -0.7071 588.3525 56.4986)" style="fill:#FFF3B0;" width="17.655" height="24.964"/>
	
		<rect x="247.174" y="164.098" transform="matrix(-0.7071 0.7071 -0.7071 -0.7071 561.8824 120.4214)" style="fill:#FFF3B0;" width="17.655" height="24.964"/>
	
		<rect x="414.896" y="66.995" transform="matrix(-0.7071 0.7071 -0.7071 -0.7071 779.5399 -163.9422)" style="fill:#FFF3B0;" width="17.655" height="24.964"/>
	
		<rect x="441.379" y="40.516" transform="matrix(-0.7071 0.7071 -0.7071 -0.7071 806.0251 -227.8712)" style="fill:#FFF3B0;" width="17.655" height="24.964"/>
	
		<rect x="388.411" y="93.524" transform="matrix(-0.7071 0.7071 -0.7071 -0.7071 753.0858 -99.9253)" style="fill:#FFF3B0;" width="17.655" height="24.964"/>
	
		<rect x="361.93" y="119.936" transform="matrix(-0.7071 0.7071 -0.7071 -0.7071 726.5569 -36.1143)" style="fill:#FFF3B0;" width="17.655" height="24.964"/>
	
		<rect x="335.448" y="146.441" transform="matrix(-0.7071 0.7071 -0.7071 -0.7071 700.0903 27.8599)" style="fill:#FFF3B0;" width="17.655" height="24.964"/>
	
		<rect x="308.956" y="172.929" transform="matrix(-0.7071 0.7071 -0.7071 -0.7071 673.5963 91.8102)" style="fill:#FFF3B0;" width="17.655" height="24.964"/>
	
		<rect x="282.482" y="199.409" transform="matrix(-0.7071 0.7071 -0.7071 -0.7071 647.1261 155.733)" style="fill:#FFF3B0;" width="17.655" height="24.964"/>
	
		<rect x="255.999" y="225.87" transform="matrix(-0.7071 0.7071 -0.7071 -0.7071 620.6284 219.6319)" style="fill:#FFF3B0;" width="17.655" height="24.964"/>
	
		<rect x="450.24" y="102.305" transform="matrix(-0.7071 0.7071 -0.7071 -0.7071 864.8439 -128.6556)" style="fill:#FFF3B0;" width="17.655" height="24.964"/>
	
		<rect x="423.719" y="128.835" transform="matrix(-0.7071 0.7071 -0.7071 -0.7071 838.3295 -64.6137)" style="fill:#FFF3B0;" width="17.655" height="24.964"/>
	
		<rect x="397.239" y="155.246" transform="matrix(-0.7071 0.7071 -0.7071 -0.7071 811.8006 -0.8027)" style="fill:#FFF3B0;" width="17.655" height="24.964"/>
	
		<rect x="370.756" y="181.752" transform="matrix(-0.7071 0.7071 -0.7071 -0.7071 785.334 63.1715)" style="fill:#FFF3B0;" width="17.655" height="24.964"/>
	
		<rect x="344.265" y="208.231" transform="matrix(-0.7071 0.7071 -0.7071 -0.7071 758.8337 127.1067)" style="fill:#FFF3B0;" width="17.655" height="24.964"/>
</g>
<g>
	
		<rect x="-9.583" y="295.762" transform="matrix(-0.6878 0.7259 -0.7259 -0.6878 399.8795 437.1872)" style="fill:#F0C797;" width="231.018" height="17.646"/>
	<path style="fill:#F0C797;" d="M50.38,447.647l-12.482-12.482L176.553,296.51v-22.828h17.655v26.483
		c0,2.339-0.927,4.59-2.586,6.241L50.38,447.647z"/>
</g>
<rect x="62.03" y="370.764" transform="matrix(-0.7071 0.7071 -0.7071 -0.7071 630.0399 498.2114)" style="fill:#FFC5B3;" width="299.614" height="17.655"/>
<g>
</g>
<g>
</g>
<g>
</g>
<g>
</g>
<g>
</g>
<g>
</g>
<g>
</g>
<g>
</g>
<g>
</g>
<g>
</g>
<g>
</g>
<g>
</g>
<g>
</g>
<g>
</g>
<g>
</g>
</svg>
