<?xml version="1.0" encoding="iso-8859-1"?>
<!-- Generator: Adobe Illustrator 19.0.0, SVG Export Plug-In . SVG Version: 6.00 Build 0)  -->
<svg version="1.1" id="Capa_1" xmlns="http://www.w3.org/2000/svg" xmlns:xlink="http://www.w3.org/1999/xlink" x="0px" y="0px"
	 viewBox="0 0 511.991 511.991" style="enable-background:new 0 0 511.991 511.991;" xml:space="preserve">
<path style="fill:#694F87;" d="M401.666,81.471c-7.715-3.234-16.018-4.719-24.389-4.719c-21.829,0-43.155,8.824-57.193,25.533
	c-34.937,41.576-113.909,59.805-113.909,59.805c29.177,17.511,52.32,19.978,70.207,15.745c-0.29,0.068-0.555,0.179-0.853,0.239
	l-1.084,1.084c0,0-70.429,117.382-151.338,149.819c-19.372,7.766-36.431,20.933-47.576,38.581
	c-8.15,12.912-14.422,29.638-14.422,50.545c0,0-8.534,85.338,102.405,85.338c0,0,204.81,8.534,238.945-256.013v-16.735
	c10.113,25.968,25.601,33.802,25.601,33.802l7.945-95.296c0.393-4.736,1.178-9.421,1.946-14.106
	C445.607,108.284,419.792,89.083,401.666,81.471z M343.329,154.443c0.375,0.845,0.717,1.775,1.075,2.663
	C344.046,156.218,343.696,155.288,343.329,154.443L343.329,154.443z M341.333,151.201c-0.085-0.111-0.137-0.265-0.23-0.375
	C341.196,150.936,341.247,151.09,341.333,151.201z M308.99,159.401c0.068-0.068,0.145-0.137,0.213-0.205
	C309.143,159.265,309.066,159.333,308.99,159.401z M281.417,176.418c0.58-0.188,1.169-0.367,1.741-0.572
	C282.586,176.051,281.997,176.23,281.417,176.418z M288.005,173.883c0.461-0.205,0.939-0.401,1.391-0.623
	C288.944,173.482,288.474,173.678,288.005,173.883z M294.047,170.803c0.358-0.205,0.717-0.401,1.067-0.606
	C294.772,170.41,294.405,170.606,294.047,170.803z M299.568,167.287c0.247-0.179,0.512-0.341,0.751-0.521
	C300.072,166.937,299.816,167.107,299.568,167.287z M304.544,163.446c0.154-0.128,0.324-0.256,0.478-0.384
	C304.859,163.19,304.697,163.318,304.544,163.446z M316.184,151.414c0.102-0.137,0.23-0.273,0.333-0.401
	c5.078-6.511,13.833-7.39,20.276-3.678C330.29,143.648,321.44,144.792,316.184,151.414z M338.551,148.436
	c-0.145-0.111-0.265-0.273-0.418-0.384C338.286,148.163,338.406,148.325,338.551,148.436z M345.489,159.785
	c0.35,0.947,0.674,1.946,1.016,2.927C346.171,161.731,345.847,160.724,345.489,159.785z M347.485,165.52
	c1.161,3.584,2.21,7.348,3.192,11.154C349.696,172.868,348.646,169.104,347.485,165.52z M350.976,177.792
	c0.87,3.473,1.656,6.981,2.381,10.454C352.623,184.772,351.846,181.265,350.976,177.792z M356.164,203.214
	c0.811,4.873,1.459,9.336,1.988,13.244C357.624,212.558,356.975,208.087,356.164,203.214z M358.571,219.667
	c0.444,3.482,0.759,6.298,0.956,8.141C359.33,225.965,359.015,223.149,358.571,219.667z M400.139,224.011
	c0.307,0.964,0.614,1.92,0.93,2.842C400.753,225.939,400.446,224.983,400.139,224.011z M393.918,179.157
	c0,3.789,0.145,7.365,0.341,10.846C394.063,186.522,393.918,182.946,393.918,179.157z M394.43,192.623
	c0.239,3.268,0.529,6.434,0.922,9.43C394.959,199.058,394.66,195.883,394.43,192.623z M395.633,203.862
	c0.341,2.338,0.717,4.583,1.143,6.759C396.35,208.454,395.966,206.201,395.633,203.862z M397.408,213.779
	c0.444,2.048,0.939,4.011,1.451,5.905C398.347,217.798,397.86,215.827,397.408,213.779z"/>
<path style="fill:#6C4127;" d="M441.195,12.399c-0.137-0.094-0.273-0.179-0.41-0.273c-9.532-6.221-22.239-4.258-29.8,4.258
	c-13.68,15.386-37.506,71.846-42.822,85.969c7.476,0.282,14.874,1.707,21.778,4.6c4.659,1.954,9.814,4.694,14.789,8.448
	c12.903-13.961,36.593-60.863,43.283-72.716C453.859,32.351,451.077,18.978,441.195,12.399z"/>
<path style="fill:#23A24D;" d="M206.175,162.09c0,0,78.98-18.228,113.909-59.805c14.038-16.709,35.364-25.533,57.193-25.533l0,0
	c8.363,0,16.675,1.485,24.389,4.719c18.126,7.612,43.94,26.813,36.277,73.612c-0.768,4.685-1.553,9.379-1.946,14.106l-7.945,95.297
	c0,0-34.135-17.068-34.135-85.338c0,0-34.135,0-34.135,51.203c0,0-4.421-48.66-16.453-75.916
	c-4.753-10.77-19.568-12.715-26.813-3.439C301.378,170.401,266.628,198.358,206.175,162.09z"/>
<g>
	<path style="fill:#4D007E;" d="M428.053,273.028c-1.306,0-2.611-0.299-3.815-0.896c-1.502-0.751-35.116-18.313-38.564-82.172
		c-7.527,3.763-17.358,13.782-17.358,40.399c0,4.557-3.584,8.32-8.15,8.525c-4.668,0.239-8.474-3.209-8.892-7.749
		c-0.043-0.478-4.446-47.601-15.762-73.237c-1.476-3.354-4.557-4.079-5.803-4.224c-1.229-0.179-4.301-0.196-6.477,2.586
		c-13.748,17.614-53.097,54.155-121.452,13.151c-2.987-1.792-4.583-5.206-4.036-8.653c0.538-3.431,3.115-6.204,6.503-6.981
		c0.76-0.179,76.642-18.1,109.3-56.98c15.258-18.16,38.487-28.58,63.722-28.58c9.865,0,19.184,1.818,27.701,5.393
		c19.201,8.056,50.119,29.544,41.389,82.854c-0.785,4.762-1.502,9.071-1.869,13.441l-7.945,95.297
		c-0.239,2.825-1.852,5.342-4.327,6.733C430.937,272.662,429.495,273.028,428.053,273.028z M393.918,170.623
		c4.711,0,8.534,3.815,8.534,8.534c0,36.67,10.121,57.057,18.51,67.656l6.528-78.323c0.41-4.941,1.203-9.728,1.963-14.362
		c6.562-40.083-13.296-57.313-31.089-64.788c-6.409-2.688-13.5-4.062-21.087-4.062c-20.182,0-38.649,8.201-50.656,22.495
		c-25.089,29.86-70.421,47.968-97.2,56.579c40.638,16.709,65.864-0.026,80.362-18.604c5.24-6.716,13.5-10.044,22.034-9.029
		c8.619,1.075,15.839,6.409,19.312,14.268c4.796,10.846,8.406,24.663,11.043,37.677
		C374.725,170.931,393.636,170.623,393.918,170.623z"/>
	<path style="fill:#4D007E;" d="M164.761,511.991c-1.067,0-1.51-0.043-1.656-0.026c-39.827,0-69.926-10.753-89.11-31.95
		c-24.628-27.206-21.531-61.324-21.386-62.757c-0.043-19.175,5.257-37.711,15.702-54.249c11.76-18.621,29.604-33.128,51.621-41.943
		c77.273-30.978,146.499-145.142,147.199-146.294c0.358-0.597,0.794-1.152,1.28-1.638l1.084-1.084
		c1.144-1.152,2.603-1.946,4.182-2.304c17.144-3.798,28.929-14.934,35.791-23.613c5.487-6.921,13.995-10.377,22.683-9.285
		c8.448,1.075,15.54,6.366,18.979,14.132c4.796,10.846,8.406,24.68,11.051,37.702c12.553-17.75,31.455-18.057,31.737-18.057
		c4.711,0,8.534,3.815,8.534,8.534c0,18.587,2.671,34.886,7.953,48.446c0.384,0.981,0.58,2.031,0.58,3.089v16.735
		c0,0.367-0.026,0.734-0.068,1.092C377.797,505.189,184.516,511.991,164.761,511.991z M280.487,185.643
		c-10.266,16.607-76.633,120.155-154.197,151.252c-18.655,7.484-33.708,19.662-43.539,35.227
		c-8.696,13.765-13.108,29.237-13.108,45.988c-0.068,1.101-2.415,29.143,17.17,50.631c15.83,17.366,41.645,26.173,76.701,26.173
		c8.38,0.299,197.522,4.702,230.412-248.025v-14.618c-4.625-12.417-7.382-26.6-8.244-42.293c-7.561,3.78-17.358,13.808-17.358,40.39
		c0,4.557-3.584,8.32-8.15,8.525c-4.668,0.239-8.474-3.209-8.892-7.749c-0.043-0.478-4.446-47.627-15.77-73.254
		c-1.382-3.132-4.054-3.917-5.521-4.096c-2.748-0.427-5.402,0.742-7.134,2.953C314.673,167.048,300.814,180.19,280.487,185.643z"/>
	<path style="fill:#4D007E;" d="M166.399,469.331c-1.007,0-2.005-0.009-3.012-0.026c-4.711-0.068-8.474-3.943-8.414-8.662
		c0.068-4.711,3.815-8.704,8.653-8.406c55.051,0.896,104.061-22.307,138.29-65.07c2.953-3.695,8.32-4.284,11.998-1.323
		c3.678,2.944,4.275,8.312,1.331,11.99C278.277,444.011,225.512,469.331,166.399,469.331z"/>
	<path style="fill:#4D007E;" d="M334.173,366.9c-1.331,0-2.68-0.307-3.934-0.964c-4.182-2.185-5.803-7.331-3.618-11.521
		c6.4-12.263,11.333-24.594,16.487-41.244c1.391-4.497,6.178-7.006,10.676-5.624c4.497,1.391,7.023,6.178,5.624,10.676
		c-5.47,17.673-10.753,30.867-17.648,44.094C340.223,365.236,337.253,366.9,334.173,366.9z"/>
	<path style="fill:#4D007E;" d="M416.447,98.453c-1.792,0-3.601-0.563-5.137-1.724c-3.883-2.927-8.235-5.41-12.946-7.373
		c-5.615-2.364-11.939-3.704-18.808-3.96c-2.739-0.102-5.265-1.519-6.784-3.798c-1.519-2.287-1.843-5.154-0.879-7.723
		c11.563-30.747,22.265-51.399,32.71-63.15c10.394-11.7,27.948-14.158,40.851-5.735c0.017,0.009,0.452,0.299,0.478,0.316
		c13.449,8.969,17.631,27.223,9.515,41.585l-0.435,0.768c-7.109,12.596-18.996,33.666-32.3,48.062
		C421.046,97.523,418.759,98.453,416.447,98.453z M391.835,69.66c4.608,0.888,9.003,2.21,13.142,3.951
		c3.456,1.451,6.784,3.123,9.942,5.009c10.147-12.604,19.397-28.998,25.234-39.349l0.435-0.777
		c3.738-6.614,1.937-14.96-4.122-18.996l0,0l-0.41-0.273c-5.811-3.78-13.876-2.603-18.689,2.825
		C409.569,30.815,401.001,46.807,391.835,69.66z"/>
</g>
<g>
</g>
<g>
</g>
<g>
</g>
<g>
</g>
<g>
</g>
<g>
</g>
<g>
</g>
<g>
</g>
<g>
</g>
<g>
</g>
<g>
</g>
<g>
</g>
<g>
</g>
<g>
</g>
<g>
</g>
</svg>
