<?xml version="1.0" encoding="iso-8859-1"?>
<!-- Generator: Adobe Illustrator 19.0.0, SVG Export Plug-In . SVG Version: 6.00 Build 0)  -->
<svg version="1.1" id="Capa_1" xmlns="http://www.w3.org/2000/svg" xmlns:xlink="http://www.w3.org/1999/xlink" x="0px" y="0px"
	 viewBox="0 0 512.001 512.001" style="enable-background:new 0 0 512.001 512.001;" xml:space="preserve">
<polygon style="fill:#399D4D;" points="260.379,300.146 313.343,300.146 309.724,344.018 295.688,512.001 225.07,512.001 
	211.829,352.757 207.415,300.146 "/>
<path style="fill:#89D84F;" d="M130,61.898c9.613-42.724,52.037-69.559,94.752-59.946c15.298,3.443,29.227,11.343,40.041,22.695
	c30.225-31.734,80.461-32.961,112.195-2.736c15.748,14.998,24.655,35.803,24.628,57.554c0,0.706-0.088,1.324-0.088,2.03
	c42.698,9.586,69.541,51.984,59.955,94.681c-2.984,13.285-9.339,25.581-18.467,35.698c29.324,32.537,26.72,82.694-5.826,112.018
	c-14.6,13.161-33.57,20.426-53.229,20.391h-70.618l-3.619-0.265l3.619-43.872H207.415l4.414,52.611l-4.414,0.353h-70.618
	c-43.88-0.044-79.41-35.653-79.357-79.534c0.026-24.822,11.652-48.206,31.425-63.203c-38.169-21.636-51.578-70.115-29.951-108.284
	c14.097-24.866,40.464-40.252,69.056-40.279C128.676,61.809,129.294,61.898,130,61.898z"/>
<path style="fill:#D1FFC5;" d="M351.3,194.219l22.713-39.723l-15.368-8.827l-33.411,58.507
	c-20.691,9.56-39.626,22.527-56.027,38.363v-89.632l8.068-11.29c21.786-30.445,50.669-55.118,84.15-71.863l-7.892-15.801
	c-32.89,16.498-61.694,40.111-84.327,69.126v-61.27h-17.655v121.287l-36.342-33.014h1.033V79.464h-17.655v56.3
	c-25.361-19.349-56.371-29.827-88.273-29.819V123.6c31.893-0.018,62.647,11.882,86.225,33.367l55.012,49.989v69.356l-11.334-6.303
	c-21.768-12.049-46.846-16.745-71.501-13.409l-33.085-57.969l-15.324,8.757l30.313,53.052c-9.772,2.948-19.111,7.177-27.771,12.588
	l-17.213,10.769l9.357,15.006l17.204-10.769c30.216-18.855,68.279-19.853,99.439-2.595l19.914,11.069v171.355h17.655V268.147
	l1.439-1.651c17.796-20.32,39.802-36.518,64.501-47.455c23.675-10.628,49.345-16.083,75.297-15.995v-17.655
	C390.405,185.382,370.473,188.357,351.3,194.219z"/>
<g>
</g>
<g>
</g>
<g>
</g>
<g>
</g>
<g>
</g>
<g>
</g>
<g>
</g>
<g>
</g>
<g>
</g>
<g>
</g>
<g>
</g>
<g>
</g>
<g>
</g>
<g>
</g>
<g>
</g>
</svg>
