<?xml version="1.0" encoding="iso-8859-1"?>
<!-- Generator: Adobe Illustrator 19.0.0, SVG Export Plug-In . SVG Version: 6.00 Build 0)  -->
<svg version="1.1" id="Capa_1" xmlns="http://www.w3.org/2000/svg" xmlns:xlink="http://www.w3.org/1999/xlink" x="0px" y="0px"
	 viewBox="0 0 512 512" style="enable-background:new 0 0 512 512;" xml:space="preserve">
<path style="fill:#95A3CD;" d="M300.138,0C417.13,0.027,511.974,94.87,512,211.862c0.071,24.302-19.571,44.067-43.873,44.138
	c-0.088,0-0.177,0-0.265,0H44.138C19.765,256,0,236.235,0,211.862C0,94.853,94.852,0,211.862,0H300.138z"/>
<g>
	<path style="fill:#CDD3E7;" d="M340.392,455.415c1.995,29.184-20.039,54.466-49.223,56.461c-1.218,0.079-2.436,0.124-3.655,0.124
		h-63.029c-29.255,0.018-52.983-23.676-53.001-52.93c0-1.218,0.044-2.436,0.124-3.655L185.379,256h141.241L340.392,455.415z"/>
	<rect x="432.552" y="150.069" style="fill:#CDD3E7;" width="17.655" height="17.655"/>
	<rect x="423.724" y="211.862" style="fill:#CDD3E7;" width="17.655" height="17.655"/>
	<rect x="459.034" y="176.552" style="fill:#CDD3E7;" width="17.655" height="17.655"/>
	<rect x="388.414" y="194.207" style="fill:#CDD3E7;" width="17.655" height="17.655"/>
	<rect x="423.724" y="97.104" style="fill:#CDD3E7;" width="17.655" height="17.655"/>
	<rect x="388.414" y="70.621" style="fill:#CDD3E7;" width="17.655" height="17.655"/>
	<rect x="344.276" y="211.862" style="fill:#CDD3E7;" width="17.655" height="17.655"/>
	<rect x="185.379" y="203.035" style="fill:#CDD3E7;" width="17.655" height="17.655"/>
	<rect x="35.31" y="211.862" style="fill:#CDD3E7;" width="17.655" height="17.655"/>
	<rect x="88.276" y="176.552" style="fill:#CDD3E7;" width="17.655" height="17.655"/>
	<rect x="35.31" y="158.897" style="fill:#CDD3E7;" width="17.655" height="17.655"/>
	<rect x="70.621" y="105.931" style="fill:#CDD3E7;" width="17.655" height="17.655"/>
	<rect x="132.414" y="52.966" style="fill:#CDD3E7;" width="17.655" height="17.655"/>
	<rect x="185.379" y="35.31" style="fill:#CDD3E7;" width="17.655" height="17.655"/>
</g>
<g>
	<rect x="211.862" y="256" style="fill:#95A3CD;" width="17.655" height="97.103"/>
	<rect x="247.172" y="256" style="fill:#95A3CD;" width="17.655" height="70.621"/>
</g>
<g>
</g>
<g>
</g>
<g>
</g>
<g>
</g>
<g>
</g>
<g>
</g>
<g>
</g>
<g>
</g>
<g>
</g>
<g>
</g>
<g>
</g>
<g>
</g>
<g>
</g>
<g>
</g>
<g>
</g>
</svg>
