<?xml version="1.0" encoding="iso-8859-1"?>
<!-- Generator: Adobe Illustrator 19.0.0, SVG Export Plug-In . SVG Version: 6.00 Build 0)  -->
<svg version="1.1" id="Capa_1" xmlns="http://www.w3.org/2000/svg" xmlns:xlink="http://www.w3.org/1999/xlink" x="0px" y="0px"
	 viewBox="0 0 468.293 468.293" style="enable-background:new 0 0 468.293 468.293;" xml:space="preserve">
<path style="fill:#FCD462;" d="M253.882,130.65c-13.387,11.693-27.771,19.931-37.039,24.615c-6.145,3.123-12.689,5.448-19.4,6.91
	c-76.669,16.676-119.454-21.094-137.16-43.118c-6.777-8.437-11.793-18.137-14.815-28.535c-0.864-2.957-1.594-5.813-2.159-8.57
	C35.9,46.739,50.45,29.1,50.45,29.1C57.293,13.521,71.643,6.246,84.3,2.857c10.099-2.691,20.662-3.023,31.06-1.694
	c27.538,3.521,58.73,0.033,58.73,0.033c15.546-1.927,36.341-1.096,47.071-0.465c5.083,0.299,10.132,0.997,15.048,2.292
	c48.566,13.022,50.061,49.629,50.061,49.629C292.847,86.469,274.577,112.645,253.882,130.65z"/>
<path style="fill:#F6C358;" d="M253.882,130.65c-13.387,11.693-27.771,19.931-37.039,24.615c-6.145,3.123-12.689,5.448-19.4,6.91
	c-76.669,16.676-119.454-21.094-137.16-43.118c-6.777-8.437-11.793-18.137-14.815-28.535c-0.864-2.957-1.594-5.813-2.159-8.57
	C89.582,112.512,173.658,155.398,253.882,130.65z"/>
<g>
	<circle style="fill:#DC8744;" cx="173.768" cy="81.951" r="8.304"/>
	<circle style="fill:#DC8744;" cx="115.575" cy="53.036" r="8.304"/>
	<circle style="fill:#DC8744;" cx="70.344" cy="93.203" r="8.304"/>
	<circle style="fill:#DC8744;" cx="190.383" cy="30.92" r="8.304"/>
	<circle style="fill:#DC8744;" cx="242.076" cy="73.647" r="8.304"/>
	<circle style="fill:#DC8744;" cx="159.657" cy="132.983" r="8.304"/>
</g>
<path style="fill:#FCD462;" d="M385.211,408.087c-22.606,19.744-46.894,33.656-62.544,41.565
	c-10.377,5.273-21.427,9.199-32.758,11.667C160.447,489.478,88.2,425.7,58.302,388.511c-11.443-14.247-19.913-30.626-25.017-48.184
	c-1.458-4.992-2.692-9.816-3.646-14.472c-12.509-59.458,12.06-89.243,12.06-89.243c11.555-26.308,35.787-38.592,57.158-44.313
	c17.052-4.544,34.89-5.104,52.447-2.861c46.5,5.946,99.172,0.056,99.172,0.056c26.251-3.253,61.365-1.851,79.483-0.785
	c8.582,0.505,17.109,1.683,25.41,3.87c82.008,21.989,84.532,83.803,84.532,83.803C451.008,333.484,420.157,377.685,385.211,408.087z
	"/>
<path style="fill:#F6C358;" d="M385.211,408.087c-22.606,19.744-46.894,33.656-62.544,41.565
	c-10.377,5.273-21.427,9.199-32.758,11.667C160.447,489.478,88.2,425.7,58.302,388.511c-11.443-14.247-19.913-30.626-25.017-48.184
	c-1.458-4.992-2.692-9.816-3.646-14.472C107.777,377.461,249.747,449.876,385.211,408.087z"/>
<g>
	<circle style="fill:#DC8744;" cx="249.937" cy="325.857" r="14.024"/>
	<circle style="fill:#DC8744;" cx="151.671" cy="277.029" r="14.024"/>
	<circle style="fill:#DC8744;" cx="75.295" cy="344.857" r="14.024"/>
	<circle style="fill:#DC8744;" cx="277.979" cy="239.685" r="14.024"/>
	<circle style="fill:#DC8744;" cx="365.268" cy="311.82" r="14.024"/>
	<circle style="fill:#DC8744;" cx="226.054" cy="412.035" r="14.024"/>
</g>
<g>
</g>
<g>
</g>
<g>
</g>
<g>
</g>
<g>
</g>
<g>
</g>
<g>
</g>
<g>
</g>
<g>
</g>
<g>
</g>
<g>
</g>
<g>
</g>
<g>
</g>
<g>
</g>
<g>
</g>
</svg>
