<?xml version="1.0" encoding="iso-8859-1"?>
<!-- Generator: Adobe Illustrator 19.0.0, SVG Export Plug-In . SVG Version: 6.00 Build 0)  -->
<svg version="1.1" id="Capa_1" xmlns="http://www.w3.org/2000/svg" xmlns:xlink="http://www.w3.org/1999/xlink" x="0px" y="0px"
	 viewBox="0 0 512 512" style="enable-background:new 0 0 512 512;" xml:space="preserve">
<g>
	<path style="fill:#E69433;" d="M457.387,201.157c-11.025,18.065-23.194,35.405-36.437,51.917
		c7.373,24.883,11.051,50.705,10.923,76.655c0,55.211-15.36,103.68-38.4,131.072c8.943,9.301,21.154,14.746,34.048,15.189
		c41.984,0,75.947-64.085,75.947-143.189C503.467,273.716,484.514,223.037,457.387,201.157z"/>
	<path style="fill:#E69433;" d="M420.983,253.074c-20.062,25.131-42.522,48.265-67.046,69.06c0.128,3.524,0.196,7.074,0.196,10.667
		c0,56.235-15.957,105.899-40.363,136.021c9.549,9.651,22.443,15.275,36.011,15.701c17.374-0.99,33.399-9.685,43.691-23.723
		c23.04-27.392,38.4-75.861,38.4-131.072C432.009,303.779,428.339,277.957,420.983,253.074z"/>
	<path style="fill:#E69433;" d="M34.133,439.468h-0.222c13.431,22.639,31.113,36.523,50.569,36.523
		c12.894-0.444,25.105-5.888,34.048-15.189c-6.562-7.987-12.126-16.751-16.58-26.078C79.479,437.846,56.823,439.433,34.133,439.468z
		"/>
	<path style="fill:#E69433;" d="M101.948,434.723c4.454,9.327,10.018,18.091,16.58,26.078
		c10.291,14.037,26.317,22.733,43.691,23.723c15.044-0.589,29.175-7.347,39.083-18.688l0.427-0.256
		c-10.428-14.43-18.543-30.396-24.064-47.326C152.9,425.729,127.582,431.233,101.948,434.723z"/>
	<path style="fill:#E69433;" d="M353.937,322.134c-51.558,43.776-111.556,76.484-176.273,96.119
		c5.521,16.93,13.636,32.896,24.064,47.326c15.957,21.077,35.755,33.621,57.344,33.621c20.395,0,39.253-11.179,54.699-30.379
		c24.405-30.123,40.363-79.787,40.363-136.021C354.133,329.217,354.065,325.659,353.937,322.134z"/>
</g>
<g>
	<path style="fill:#FFA439;" d="M397.312,201.473l-1.024,0.768c11.187,15.343,19.55,32.555,24.695,50.833
		c13.244-16.512,25.412-33.852,36.437-51.917C440.337,185.644,414.225,185.78,397.312,201.473z"/>
	<path style="fill:#FFA439;" d="M349.781,174.934c-14.916,0.572-28.954,7.236-38.827,18.432
		c24.431,27.87,41.037,74.846,42.982,128.768c24.525-20.796,46.985-43.93,67.046-69.06c-5.146-18.278-13.508-35.49-24.695-50.833
		C383.061,185.004,367.019,174.934,349.781,174.934z"/>
	<path style="fill:#FFA439;" d="M101.948,434.723c-14.985-32.93-22.434-68.787-21.82-104.96c0-52.907,14.08-99.584,35.584-127.488
		c-8.55-7.825-19.644-12.314-31.232-12.629c-41.984-0.034-75.947,64.051-75.947,143.155c-0.93,37.154,7.817,73.916,25.378,106.667
		h0.222C56.823,439.433,79.479,437.846,101.948,434.723z"/>
	<path style="fill:#FFA439;" d="M204.288,196.865c-1.792-2.048-3.669-3.925-5.547-5.717c-9.6-9.95-22.699-15.77-36.523-16.213
		c-17.237,0-33.28,10.069-46.507,27.307c-21.504,27.904-35.584,74.581-35.584,127.488c-0.614,36.173,6.835,72.03,21.82,104.96
		c25.634-3.49,50.953-8.994,75.716-16.469c-9.199-27.537-13.807-56.388-13.653-85.419
		C164.011,276.652,179.883,226.988,204.288,196.865z"/>
	<path style="fill:#FFA439;" d="M310.272,192.598c-12.45-15.753-31.138-25.318-51.2-26.197c-20.395,0-39.339,11.264-54.784,30.464
		c-24.405,30.123-40.277,79.787-40.277,135.936c-0.162,29.039,4.454,57.907,13.653,85.453
		c64.717-19.635,124.715-52.343,176.273-96.119c-1.946-53.922-18.551-100.898-42.982-128.768
		C310.699,193.11,310.528,192.854,310.272,192.598z"/>
</g>
<g>
	<path style="fill:#B85F3E;" d="M259.072,166.401c-20.395,0-39.339,11.264-54.784,30.464c-1.792-2.048-3.669-3.925-5.547-5.717
		l9.728-52.565C223.275,60.383,291.78,3.892,371.371,4.268v34.133c-41.796-0.239-75.913,33.382-76.288,75.179
		c0,5.547,0.631,11.068,1.877,16.469l13.995,61.952l-0.683,0.597C297.822,176.846,279.134,167.28,259.072,166.401z"/>
	<path style="fill:#B85F3E;" d="M259.072,507.734c-23.637,0-45.824-12.8-64.145-37.001c-25.079-33.28-39.45-83.627-39.45-137.933
		c0-55.876,15.761-108.706,42.18-141.312c17.681-21.99,38.938-33.621,61.44-33.621c22.511,0.828,43.546,11.443,57.583,29.065
		l0.717,0.853c28.365,32.358,45.295,86.588,45.295,145.067c0,55.876-15.804,108.732-42.266,141.389
		C302.754,496.129,281.54,507.734,259.072,507.734z M259.072,174.934c-21.649,0-38.118,14.831-48.128,27.307
		c-24.055,29.679-38.4,78.507-38.4,130.56c0,49.98,13.457,97.698,35.994,127.642c10.436,13.781,27.691,30.225,50.534,30.225
		c17.126,0,33.732-9.387,48.043-27.196c24.107-29.739,38.485-78.618,38.485-130.671c0-54.451-15.36-104.474-41.062-133.811l0,0
		l-0.486-0.555C293.18,184.449,276.762,175.873,259.072,174.934z"/>
	<path style="fill:#B85F3E;" d="M349.781,493.057c-15.718-0.435-30.686-6.869-41.813-17.98l11.614-12.51
		c7.962,8.201,18.782,13.005,30.208,13.423c14.805-1.212,28.356-8.755,37.188-20.702c22.426-26.675,36.369-74.795,36.369-125.559
		c0-49.092-12.638-94.805-33.809-122.274c-8.414-10.948-22.118-23.987-39.757-23.987c-12.629,0.555-24.465,6.298-32.725,15.863
		l-6.357-5.709l-6.033-6.033l6.042,5.973l-5.973-6.042c11.503-12.902,27.776-20.531,45.047-21.12
		c19.465,0,37.888,10.598,53.274,30.643c23.39,30.345,37.35,79.957,37.35,132.685c0,55.424-15.095,106.479-40.397,136.533
		C388.122,482.262,369.69,492.101,349.781,493.057z"/>
	<path style="fill:#B85F3E;" d="M427.52,484.524c-15.078-0.435-29.397-6.724-39.927-17.536l11.767-12.373
		c7.347,7.799,17.459,12.407,28.16,12.843c36.54,0,67.413-61.662,67.413-134.656S464.06,198.145,427.52,198.145
		c-9.165,0.239-17.937,3.746-24.747,9.882l-10.923-13.107c9.882-8.678,22.519-13.585,35.669-13.841
		c47.368,0,84.48,66.645,84.48,151.723S474.889,484.524,427.52,484.524z"/>
	<path style="fill:#B85F3E;" d="M162.219,493.057c-19.891-0.947-38.315-10.761-50.202-26.743
		c-25.327-30.106-40.422-81.161-40.422-136.585c0-52.727,13.961-102.34,37.359-132.693c15.377-20.036,33.801-30.635,53.265-30.635
		c16,0.461,31.189,7.108,42.394,18.543c2.082,1.997,4.139,4.053,6.093,6.298l-12.8,11.247c-1.621-1.852-3.328-3.55-5.018-5.171
		c-8.021-8.448-19.029-13.414-30.669-13.85c-17.638,0-31.343,13.039-39.74,23.97c-21.18,27.486-33.818,73.199-33.818,122.291
		c0,50.765,13.943,98.884,36.395,125.577c8.823,11.938,22.374,19.473,37.163,20.685c12.74-0.572,24.67-6.4,32.956-16.094
		l12.254,11.878C195.917,484.771,179.567,492.468,162.219,493.057z"/>
	<path style="fill:#B85F3E;" d="M84.48,484.524C37.111,484.524,0,417.878,0,332.801s37.111-151.723,84.48-151.723
		c13.611,0.333,26.65,5.538,36.753,14.66l-11.051,13.005c-7.006-6.519-16.137-10.283-25.702-10.598
		c-36.54,0-67.413,61.662-67.413,134.656S47.94,467.457,84.48,467.457c10.701-0.435,20.813-5.043,28.16-12.843l11.767,12.373
		C113.877,477.799,99.558,484.088,84.48,484.524z"/>
</g>
<g>
</g>
<g>
</g>
<g>
</g>
<g>
</g>
<g>
</g>
<g>
</g>
<g>
</g>
<g>
</g>
<g>
</g>
<g>
</g>
<g>
</g>
<g>
</g>
<g>
</g>
<g>
</g>
<g>
</g>
</svg>
