<?xml version="1.0" encoding="iso-8859-1"?>
<!-- Generator: Adobe Illustrator 19.0.0, SVG Export Plug-In . SVG Version: 6.00 Build 0)  -->
<svg version="1.1" id="Capa_1" xmlns="http://www.w3.org/2000/svg" xmlns:xlink="http://www.w3.org/1999/xlink" x="0px" y="0px"
	 viewBox="0 0 512.004 512.004" style="enable-background:new 0 0 512.004 512.004;" xml:space="preserve">
<path style="fill:#6B2F59;" d="M138.726,399.296c9.146,7.557,19.847,13.007,31.342,15.952l24.182,6.218
	c11.685,2.988,21.298,11.262,25.996,22.369l25.737,61.492c2.306,5.536,8.671,8.144,14.198,5.838
	c2.634-1.105,4.733-3.196,5.838-5.838l25.737-61.492c4.698-11.107,14.311-19.38,25.996-22.369l24.182-6.218
	c35.85-9.172,60.922-41.499,60.888-78.506v-22.809c-70.707,55.662-158.1,85.873-248.085,85.769
	C149.367,399.702,144.046,399.503,138.726,399.296z"/>
<path style="fill:#80386A;" d="M367.5,317.594l-7.427-15.598c17.783-8.464,29.502-18.871,33.009-29.321l8.939,3.006
	c-6.227-52.078-50.386-91.28-102.835-91.288h-86.365c-57.234,0-103.638,46.404-103.638,103.638v48.71
	c0,24.217,10.839,47.173,29.546,62.554c5.32,0.207,10.64,0.406,16.012,0.406c89.984,0.104,177.377-30.107,248.085-85.769v-23.319
	C393.444,302.376,381.31,311.643,367.5,317.594z"/>
<path style="fill:#307E45;" d="M301.689,13.994c11.841-3.394,24.182,3.455,27.576,15.295c1.244,4.327,1.14,8.93-0.285,13.205
	l-3.886,11.746c6.227,4.042,9.975,10.968,9.932,18.396c0.155,11.564-8.611,21.298-20.123,22.369l-24.355,2.418l-34.546,86.365
	l-34.546-86.365h-23.923c-12.307-0.009-22.291-9.992-22.282-22.3c0-5.925,2.366-11.608,6.564-15.788l5.096-5.096l-4.232-8.464
	c-5.493-11.037-1.002-24.441,10.036-29.934c4.759-2.366,10.2-2.962,15.356-1.675l22.023,5.527l7.687-10.537
	c7.237-9.941,21.168-12.126,31.109-4.888c1.727,1.261,3.265,2.755,4.56,4.456l8.464,10.968L301.689,13.994z"/>
<g>
	<path style="fill:#AD5793;" d="M212.379,336.404c-28.777-2.98-56.613-11.979-81.684-26.419l9.302-14.553
		c22.947,13.076,48.373,21.194,74.646,23.846L212.379,336.404z"/>
	<path style="fill:#AD5793;" d="M256.002,339.246c-2.772,0-5.45,0-8.213-0.095c-6.046-0.173-12.091-0.44-18.007-0.864l1.313-17.221
		c5.657,0.423,11.4,0.674,17.221,0.864c2.591,0.086,5.139,0,7.687,0.086C256.002,322.016,256.002,339.246,256.002,339.246z"/>
	<path style="fill:#AD5793;" d="M360.072,301.996l7.427,15.598c13.818-5.942,25.944-15.209,35.323-26.963v-2.591
		c-0.026-4.128-0.294-8.257-0.803-12.35l-8.939-3.006C389.575,283.108,377.855,293.533,360.072,301.996z"/>
	<path style="fill:#AD5793;" d="M256.002,399.702c-8.542,0-17.351-0.328-26.195-0.976l-8.714-0.751l1.58-17.204l8.524,0.777
		c8.386,0.613,17.014,0.648,25.046,0.915c2.764,0,5.441,0,8.118-0.086c14.276-0.345,28.509-1.693,42.595-4.025l2.902,17.023
		c-14.881,2.487-29.917,3.93-44.996,4.318C261.961,399.702,259.025,399.702,256.002,399.702z"/>
	<path style="fill:#AD5793;" d="M332.617,390.504l-4.508-16.669c3.981-1.08,7.877-2.15,11.599-3.403
		c8.464-2.643,16.686-6.02,24.571-10.079l7.997,15.304c-8.732,4.517-17.834,8.274-27.214,11.227
		C341.15,388.163,336.926,389.338,332.617,390.504z"/>
</g>
<g>
</g>
<g>
</g>
<g>
</g>
<g>
</g>
<g>
</g>
<g>
</g>
<g>
</g>
<g>
</g>
<g>
</g>
<g>
</g>
<g>
</g>
<g>
</g>
<g>
</g>
<g>
</g>
<g>
</g>
</svg>
