<?xml version="1.0" encoding="iso-8859-1"?>
<!-- Generator: Adobe Illustrator 19.0.0, SVG Export Plug-In . SVG Version: 6.00 Build 0)  -->
<svg version="1.1" id="Layer_1" xmlns="http://www.w3.org/2000/svg" xmlns:xlink="http://www.w3.org/1999/xlink" x="0px" y="0px"
	 viewBox="0 0 324.786 324.786" style="enable-background:new 0 0 324.786 324.786;" xml:space="preserve">
<g>
	<path style="fill:#5C6670;" d="M2.197,322.589c-2.929-2.93-2.929-7.678,0-10.605L298.503,15.677c2.929-2.928,7.677-2.928,10.606,0
		c2.93,2.93,2.93,7.678,0,10.607L12.804,322.589C9.875,325.519,5.127,325.519,2.197,322.589z"/>
	<g>
		
			<rect x="204.758" y="66.768" transform="matrix(-0.7071 -0.7071 0.7071 -0.7071 343.8611 316.879)" style="fill:#00783E;" width="65.6" height="40.911"/>
		
			<rect x="215.067" y="71.038" transform="matrix(-0.7071 -0.7071 0.7071 -0.7071 368.748 306.5712)" style="fill:#006132;" width="65.6" height="11.754"/>
	</g>
	<g>
		
			<rect x="94.545" y="176.991" transform="matrix(-0.7071 -0.7071 0.7071 -0.7071 77.7776 427.1083)" style="fill:#00783E;" width="65.601" height="40.911"/>
		
			<rect x="104.854" y="181.26" transform="matrix(-0.7071 -0.7071 0.7071 -0.7071 102.665 416.7999)" style="fill:#006132;" width="65.601" height="11.754"/>
	</g>
	<g>
		<path style="fill:#B3874F;" d="M138.954,249.302c3.889-3.889,3.889-10.254-0.001-14.143l-49.326-49.326
			c-3.889-3.889-10.252-3.889-14.141,0l-31.537,31.538c-3.889,3.889-3.889,10.254,0,14.143l49.326,49.326
			c3.889,3.889,10.253,3.889,14.142,0L138.954,249.302z"/>
		<path style="fill:#997443;" d="M43.949,217.371c-3.889,3.889-3.889,10.254,0,14.143l49.326,49.326
			c3.889,3.889,10.253,3.889,14.142,0L43.949,217.371z"/>
	</g>
	<path style="fill:#5A3C3D;" d="M248.468,139.789c3.889-3.891,3.889-10.254,0-14.143L199.142,76.32
		c-3.889-3.889-10.254-3.889-14.143,0l-31.537,31.537c-3.889,3.889-3.889,10.252,0,14.141l49.326,49.326
		c3.89,3.889,10.254,3.891,14.143,0L248.468,139.789z"/>
	<g>
		<path style="fill:#B3874F;" d="M321.869,66.386c3.889-3.889,3.889-10.252,0-14.143L272.543,2.917
			c-3.889-3.889-10.253-3.889-14.142,0l-20.444,20.445c-3.889,3.889-3.889,10.252,0,14.141l49.326,49.326
			c3.889,3.891,10.254,3.891,14.143,0.002L321.869,66.386z"/>
		<path style="fill:#997443;" d="M237.957,23.363c-3.889,3.889-3.889,10.252,0,14.141l49.326,49.326
			c3.889,3.891,10.254,3.891,14.143,0.002L237.957,23.363z"/>
	</g>
	
		<rect x="112.945" y="152.889" transform="matrix(-0.7071 -0.7071 0.7071 -0.7071 140.7836 401.0039)" style="fill:#E94F3D;" width="80.995" height="36.912"/>
	<g>
		
			<rect x="121.642" y="143.249" transform="matrix(-0.7071 -0.7071 0.7071 -0.7071 186.3305 382.1335)" style="fill:#FEDD3D;" width="101.331" height="18.455"/>
		
			<rect x="117.312" y="153.698" transform="matrix(-0.7071 -0.7071 0.7071 -0.7071 175.8785 386.4597)" style="fill:#B3874F;" width="101.331" height="6.212"/>
	</g>
	<g>
		
			<rect x="205.762" y="59.128" transform="matrix(-0.7071 -0.7071 0.7071 -0.7071 389.4146 298.012)" style="fill:#FEDD3D;" width="101.332" height="18.456"/>
		
			<rect x="201.433" y="69.578" transform="matrix(-0.7071 -0.7071 0.7071 -0.7071 378.9643 302.3407)" style="fill:#B3874F;" width="101.332" height="6.212"/>
	</g>
</g>
<g>
</g>
<g>
</g>
<g>
</g>
<g>
</g>
<g>
</g>
<g>
</g>
<g>
</g>
<g>
</g>
<g>
</g>
<g>
</g>
<g>
</g>
<g>
</g>
<g>
</g>
<g>
</g>
<g>
</g>
</svg>
