<?xml version="1.0" encoding="iso-8859-1"?>
<!-- Generator: Adobe Illustrator 19.0.0, SVG Export Plug-In . SVG Version: 6.00 Build 0)  -->
<svg version="1.1" id="Layer_1" xmlns="http://www.w3.org/2000/svg" xmlns:xlink="http://www.w3.org/1999/xlink" x="0px" y="0px"
	 viewBox="0 0 512 512" style="enable-background:new 0 0 512 512;" xml:space="preserve">
<rect x="32.929" y="168.604" style="fill:#FF728B;" width="444.454" height="241.563"/>
<g>
	<path style="fill:#FF3F62;" d="M447.066,303.037c-4.186,0-7.579-3.393-7.579-7.579v-55.916c0-4.186,3.393-7.579,7.579-7.579
		s7.579,3.393,7.579,7.579v55.916C454.645,299.644,451.252,303.037,447.066,303.037z"/>
	<path style="fill:#FF3F62;" d="M447.066,356.257c-4.186,0-7.579-3.393-7.579-7.579v-22.904c0-4.186,3.393-7.579,7.579-7.579
		s7.579,3.393,7.579,7.579v22.904C454.645,352.864,451.252,356.257,447.066,356.257z"/>
	<rect x="32.929" y="168.604" style="fill:#FF3F62;" width="63.662" height="241.563"/>
	<rect x="32.929" y="168.604" style="fill:#FF3F62;" width="444.505" height="47.304"/>
</g>
<circle style="fill:#FFE477;" cx="255.155" cy="289.38" r="67.037"/>
<path style="fill:#C6C5CA;" d="M401.511,89.968c-13.859-13.859-36.329-13.859-50.188,0s-40.072,62.542-26.213,76.401
	s62.542-12.354,76.401-26.213C415.371,126.298,415.371,103.827,401.511,89.968z M363.311,128.169
	c-5.489-5.489-5.489-14.389,0-19.878c5.489-5.489,14.389-5.489,19.878,0c5.489,5.489,5.489,14.389,0,19.878
	C377.7,133.658,368.8,133.658,363.311,128.169z"/>
<path style="fill:#ACABB1;" d="M368.502,100.319c9.232-9.232,22.285-12.306,34.068-9.237c-0.346-0.376-0.694-0.75-1.059-1.114
	c-13.859-13.859-36.329-13.859-50.188,0c-13.859,13.859-40.072,62.542-26.213,76.401c3.11,3.11,7.978,4.198,13.809,3.864
	C334.633,151.521,356.329,112.491,368.502,100.319z"/>
<g>
	<path style="fill:#FFE477;" d="M482.162,432.426H31.528c-12.242,0-22.259-10.016-22.259-22.259l0,0
		c0-12.242,10.016-22.259,22.259-22.259h450.634c12.242,0,22.26,10.016,22.26,22.259l0,0
		C504.421,422.408,494.404,432.426,482.162,432.426z"/>
	<path style="fill:#FFE477;" d="M480.472,190.858H29.838c-12.242,0-22.26-10.016-22.26-22.26l0,0
		c0-12.242,10.016-22.259,22.26-22.259h450.634c12.242,0,22.259,10.016,22.259,22.259l0,0
		C502.731,180.842,492.714,190.858,480.472,190.858z"/>
</g>
<g>
	<path style="fill:#FFDA44;" d="M95.494,168.6L95.494,168.6c0-12.242,10.016-22.259,22.26-22.259H29.838
		c-12.242,0-22.26,10.016-22.26,22.259l0,0c0,12.242,10.016,22.26,22.26,22.26h87.915C105.511,190.858,95.494,180.842,95.494,168.6z
		"/>
	<path style="fill:#FFDA44;" d="M97.184,410.166L97.184,410.166c0-12.242,10.016-22.26,22.259-22.26H31.528
		c-12.242,0-22.259,10.016-22.259,22.259l0,0c0,12.242,10.016,22.259,22.259,22.259h87.915
		C107.2,432.426,97.184,422.408,97.184,410.166z"/>
</g>
<path d="M255.155,214.77c-41.141,0-74.612,33.471-74.612,74.613c0,41.141,33.471,74.612,74.612,74.612
	c41.142,0,74.613-33.471,74.613-74.612C329.768,248.241,296.297,214.77,255.155,214.77z M255.155,348.838
	c-32.783,0-59.455-26.672-59.455-59.455c0-32.784,26.671-59.456,59.455-59.456c32.784,0,59.456,26.671,59.456,59.456
	C314.61,322.166,287.939,348.838,255.155,348.838z"/>
<path d="M202.442,153.919h-25.768c-4.186,0-7.579-3.393-7.579-7.579s3.393-7.579,7.579-7.579h25.768
	c4.186,0,7.579,3.393,7.579,7.579S206.629,153.919,202.442,153.919z"/>
<path d="M484.961,380.464V198.1c14.33-2.172,25.349-14.573,25.349-29.5c0-16.452-13.385-29.837-29.837-29.837h-68.083
	c4.615-6.974,7.097-15.145,7.097-23.7c0-11.504-4.48-22.318-12.614-30.453c-8.134-8.135-18.949-12.614-30.453-12.614
	s-22.319,4.481-30.454,12.614c-10.204,10.203-24.383,34.557-29.889,54.152h-51.485h-32.842c-4.186,0-7.579,3.393-7.579,7.579
	s3.393,7.579,7.579,7.579h248.724c8.094,0,14.68,6.586,14.68,14.68c0,8.095-6.586,14.681-14.68,14.681H29.838
	c-8.095,0-14.681-6.586-14.681-14.681c0-8.094,6.586-14.68,14.681-14.68h118.23c4.186,0,7.579-3.393,7.579-7.579
	s-3.393-7.579-7.579-7.579H29.838C13.385,138.761,0,152.146,0,168.6c0,14.791,10.821,27.097,24.96,29.433v183.033
	c-13.301,3.001-23.269,14.905-23.269,29.101c0,16.452,13.385,29.837,29.837,29.837h450.634c16.453,0,29.838-13.385,29.838-29.838
	C512,394.658,500.105,381.88,484.961,380.464z M377.829,122.809c-1.223,1.223-2.85,1.897-4.579,1.897
	c-1.73,0-3.356-0.674-4.58-1.897l0,0c-1.223-1.224-1.897-2.85-1.897-4.58s0.674-3.356,1.897-4.58
	c1.263-1.263,2.921-1.894,4.58-1.894s3.317,0.632,4.58,1.894c1.223,1.224,1.897,2.85,1.897,4.58S379.053,121.586,377.829,122.809z
	 M396.153,134.798c-1.193,1.193-2.742,2.534-4.569,3.964h-11.541c3.168-1.045,6.077-2.806,8.504-5.233
	c4.087-4.087,6.337-9.519,6.337-15.298s-2.25-11.212-6.337-15.298c-8.435-8.436-22.16-8.435-30.595,0
	c-4.087,4.086-6.337,9.519-6.337,15.298s2.25,11.212,6.337,15.298l0,0c2.427,2.427,5.337,4.189,8.505,5.233h-34.54
	c5.737-17.147,17.812-36.483,24.765-43.434c5.272-5.272,12.281-8.175,19.735-8.175c7.455,0,14.463,2.903,19.735,8.175
	c5.271,5.272,8.174,12.28,8.174,19.735C404.327,122.519,401.424,129.526,396.153,134.798z M40.117,198.438h429.686v181.89H40.117
	V198.438z M482.162,424.847H31.528c-8.094,0-14.68-6.586-14.68-14.681c0-8.094,6.586-14.68,14.68-14.68h450.634
	c8.095,0,14.681,6.586,14.681,14.681C496.842,418.261,490.257,424.847,482.162,424.847z"/>
<g>
</g>
<g>
</g>
<g>
</g>
<g>
</g>
<g>
</g>
<g>
</g>
<g>
</g>
<g>
</g>
<g>
</g>
<g>
</g>
<g>
</g>
<g>
</g>
<g>
</g>
<g>
</g>
<g>
</g>
</svg>
