<?xml version="1.0" encoding="iso-8859-1"?>
<!-- Generator: Adobe Illustrator 19.0.0, SVG Export Plug-In . SVG Version: 6.00 Build 0)  -->
<svg version="1.1" id="Capa_1" xmlns="http://www.w3.org/2000/svg" xmlns:xlink="http://www.w3.org/1999/xlink" x="0px" y="0px"
	 viewBox="0 0 512 512" style="enable-background:new 0 0 512 512;" xml:space="preserve">
<polygon style="fill:#DE3B1D;" points="442.576,377.839 426.262,455.941 94.416,455.941 78.102,377.839 138.847,377.839 
	407.864,377.839 "/>
<polygon style="fill:#F0F0F0;" points="95.458,117.5 69.424,143.534 43.39,117.5 8.678,117.5 8.678,82.788 34.712,82.094 
	34.712,56.06 69.424,56.754 69.424,91.466 "/>
<g>
	<polygon style="fill:#F29823;" points="242.983,195.602 242.983,256.348 208.271,291.06 147.525,291.06 86.78,230.314 
		69.424,143.534 95.458,117.5 138.847,126.178 182.237,134.856 	"/>
	<polygon style="fill:#F29823;" points="138.847,126.178 338.441,126.178 459.932,256.348 459.932,343.127 407.864,377.839 
		138.847,377.839 86.78,339.569 86.78,230.314 147.525,291.06 208.271,291.06 242.983,256.348 242.983,195.602 182.237,134.856 	"/>
</g>
<g>
	<rect x="164.881" y="238.297" style="fill:#FFD16C;" width="17.356" height="17.356"/>
	<rect x="199.593" y="220.942" style="fill:#FFD16C;" width="17.356" height="17.356"/>
	<rect x="182.237" y="194.908" style="fill:#FFD16C;" width="17.356" height="17.356"/>
	<rect x="321.085" y="168.874" style="fill:#FFD16C;" width="17.356" height="17.356"/>
	<rect x="355.797" y="203.586" style="fill:#FFD16C;" width="17.356" height="17.356"/>
	<rect x="390.508" y="238.297" style="fill:#FFD16C;" width="17.356" height="17.356"/>
	<rect x="355.797" y="238.297" style="fill:#FFD16C;" width="17.356" height="17.356"/>
	<rect x="321.085" y="203.586" style="fill:#FFD16C;" width="17.356" height="17.356"/>
</g>
<g>
	<path style="fill:#DE3B1D;" d="M426.262,464.619H94.416c-4.122,0-7.671-2.907-8.496-6.942l-14.874-71.159H8.678v-17.356h69.424
		c4.122,0,7.671,2.907,8.496,6.942l14.865,71.159h317.752l14.865-71.159c0.824-4.035,4.374-6.942,8.496-6.942H512v17.356h-62.377
		l-14.865,71.159C433.933,461.712,430.384,464.619,426.262,464.619z"/>
	<rect x="78.102" y="369.161" style="fill:#DE3B1D;" width="364.475" height="17.356"/>
</g>
<rect x="164.881" y="238.297" width="17.356" height="17.356"/>
<rect x="199.593" y="220.942" width="17.356" height="17.356"/>
<rect x="182.237" y="194.908" width="17.356" height="17.356"/>
<rect x="321.085" y="168.874" width="17.356" height="17.356"/>
<rect x="355.797" y="203.586" width="17.356" height="17.356"/>
<rect x="390.508" y="238.297" width="17.356" height="17.356"/>
<rect x="355.797" y="238.297" width="17.356" height="17.356"/>
<rect x="321.085" y="203.586" width="17.356" height="17.356"/>
<path d="M8.678,126.178h31.119l21.634,21.634l16.67,83.361v108.396c0,2.76,1.31,5.363,3.541,6.994l30.755,22.563H8.678v17.356
	h62.369l14.874,71.159c0.824,4.035,4.374,6.942,8.496,6.942h331.845c4.122,0,7.671-2.907,8.496-6.942l14.865-71.159H512v-17.356
	h-75.498l28.221-18.814c2.412-1.597,3.87-4.296,3.888-7.185v-86.78c0-2.196-0.833-4.313-2.334-5.918L344.784,120.26
	c-1.64-1.762-3.94-2.76-6.344-2.76H139.715l-39.971-7.992L78.102,87.874V56.754c0-4.721-3.775-8.583-8.496-8.678l-34.712-0.694
	c-2.334-0.035-4.582,0.85-6.257,2.482c-1.666,1.631-2.603,3.862-2.603,6.196v17.582L8.452,74.119C3.749,74.241,0,78.094,0,82.797
	v34.712C0.009,122.299,3.888,126.178,8.678,126.178z M419.215,447.263H101.463l-12.687-60.746h343.127L419.215,447.263z
	 M334.666,134.856l116.589,124.911v78.718l-45.993,30.677H141.685l-46.228-33.983v-83.916l45.932,45.932
	c1.623,1.631,3.836,2.543,6.135,2.543h60.746c2.3,0,4.513-0.911,6.135-2.543l34.712-34.712c1.631-1.623,2.543-3.836,2.543-6.135
	v-60.746c0-2.3-0.911-4.513-2.543-6.135l-54.61-54.61H334.666z M177.959,142.84l56.346,56.355v53.56l-29.627,29.627h-53.56
	l-56.346-56.346l-15.924-79.646l19.465-19.465L177.959,142.84z M17.356,91.241l17.582-0.469c4.703-0.121,8.452-3.975,8.452-8.678
	V64.912l17.356,0.347v26.207c0,2.3,0.911,4.513,2.543,6.135L83.187,117.5l-13.763,13.763l-19.899-19.899
	c-1.623-1.623-3.836-2.543-6.135-2.543H17.356V91.241z"/>
<g>
</g>
<g>
</g>
<g>
</g>
<g>
</g>
<g>
</g>
<g>
</g>
<g>
</g>
<g>
</g>
<g>
</g>
<g>
</g>
<g>
</g>
<g>
</g>
<g>
</g>
<g>
</g>
<g>
</g>
</svg>
