<?xml version="1.0" encoding="iso-8859-1"?>
<!-- Generator: Adobe Illustrator 19.0.0, SVG Export Plug-In . SVG Version: 6.00 Build 0)  -->
<svg version="1.1" id="Capa_1" xmlns="http://www.w3.org/2000/svg" xmlns:xlink="http://www.w3.org/1999/xlink" x="0px" y="0px"
	 viewBox="0 0 512.002 512.002" style="enable-background:new 0 0 512.002 512.002;" xml:space="preserve">
<g>
	<path style="fill:#D49586;" d="M106.75,62.893c24.175,0,43.776,19.601,43.776,43.776s-19.601,43.776-43.776,43.776
		s-43.776-19.601-43.776-43.776C63.033,82.519,82.6,62.952,106.75,62.893z"/>
	<circle style="fill:#D49586;" cx="217.427" cy="81.069" r="21.333"/>
</g>
<g>
	<path style="fill:#EDB4A5;" d="M255.827,81.069c0,21.205-17.195,38.4-38.4,38.4s-38.4-17.195-38.4-38.4s17.195-38.4,38.4-38.4
		C238.624,42.703,255.793,59.872,255.827,81.069z M217.427,102.402c11.785,0,21.333-9.549,21.333-21.333
		s-9.549-21.333-21.333-21.333c-11.785,0-21.333,9.549-21.333,21.333S205.651,102.402,217.427,102.402z"/>
	<path style="fill:#EDB4A5;" d="M150.611,106.669c0.026-24.201-19.575-43.836-43.776-43.861
		c-24.201-0.026-43.836,19.575-43.861,43.776c-0.026,24.201,19.575,43.836,43.776,43.861
		C130.933,150.428,150.551,130.852,150.611,106.669z M106.75,45.826c33.604,0,60.843,27.238,60.843,60.843
		s-27.238,60.843-60.843,60.843s-60.843-27.238-60.843-60.843l0,0C45.967,73.09,73.171,45.886,106.75,45.826z"/>
</g>
<path style="fill:#F5D0C7;" d="M222.206,0.514c-7.381-0.785-14.831-0.666-22.187,0.341c-26.086,3.456-52.506,3.456-78.592,0
	c-5.888-0.725-11.819-0.981-17.749-0.768C44.815,2.383-1.043,51.962,1.252,110.833c2.244,57.617,49.886,103.023,107.546,102.502
	c1.792,0,3.584-0.085,5.376-0.171c26.812-1.271,52.139-12.646,70.912-31.829c7.211-7.151,16.973-11.145,27.136-11.093
	c46.993,0.674,85.632-36.873,86.315-83.857C299.168,42.31,266.05,5.054,222.206,0.514z M179.027,81.069
	c0-21.205,17.195-38.4,38.4-38.4s38.4,17.195,38.4,38.4s-17.195,38.4-38.4,38.4C196.239,119.435,179.061,102.266,179.027,81.069z
	 M106.75,167.511c-33.604-0.051-60.809-27.324-60.757-60.928s27.324-60.809,60.928-60.757c33.57,0.051,60.757,27.273,60.757,60.843
	C167.635,140.29,140.371,167.511,106.75,167.511z"/>
<g>
	<path style="fill:#EDB4A5;" d="M490.494,251.735c0.017,11.87-5.504,23.074-14.933,30.293c-2.509-5.163-5.453-10.095-8.789-14.763
		c4.241-4.053,6.647-9.66,6.656-15.531c0.034-21.197,17.203-38.366,38.4-38.4v17.067
		C500.051,230.402,490.494,239.951,490.494,251.735z"/>
	<path style="fill:#EDB4A5;" d="M466.771,267.266c3.337,4.668,6.281,9.6,8.789,14.763c-4.54,3.593-9.856,6.076-15.531,7.253
		c-2.782-5.76-6.187-11.196-10.155-16.213h2.219C457.546,273.077,462.803,271.004,466.771,267.266z"/>
	<path style="fill:#EDB4A5;" d="M460.03,289.282c-2.603,0.589-5.265,0.87-7.936,0.853H430.76v-17.067h19.115
		C453.843,278.086,457.248,283.522,460.03,289.282z"/>
	<path style="fill:#EDB4A5;" d="M161.96,324.269v-18.944c-0.043-11.981,4.719-23.475,13.227-31.915l14.848-14.933l12.117,12.117
		l-14.933,14.848c-5.274,5.274-8.226,12.425-8.192,19.883v5.12l38.827-19.371l7.68,15.189l-51.2,25.6
		c-1.195,0.597-2.509,0.922-3.84,0.939c-1.596,0-3.166-0.444-4.523-1.28C163.471,329.96,161.96,327.221,161.96,324.269z"/>
</g>
<path style="fill:#F5D0C7;" d="M475.56,282.029c-4.54,3.593-9.856,6.076-15.531,7.253c-2.603,0.589-5.265,0.87-7.936,0.853H430.76
	v-17.067h21.333c5.453,0.009,10.701-2.065,14.677-5.803c-19.917-28.467-52.471-45.414-87.211-45.397H208.894
	c-43.29-0.119-82.313,26.044-98.645,66.133v0.085l-31.147,63.317l-22.272,7.424c-3.456,1.203-5.777,4.446-5.803,8.107v42.667
	c-0.009,4.198,3.029,7.774,7.168,8.448l51.712,8.619l46.933,4.608l13.824,73.728c0.742,4.045,4.258,6.98,8.363,6.997h34.133
	c4.71,0,8.533-3.823,8.533-8.533v-68.267h134.059c10.743,9.6,24.303,15.471,38.656,16.725l15.36,53.845
	c1.033,3.678,4.378,6.221,8.192,6.229h34.133c4.471-0.034,8.175-3.482,8.533-7.936l8.363-117.419
	C489.35,355.33,491.842,315.65,475.56,282.029z M161.96,324.269v-18.944c-0.043-11.981,4.719-23.475,13.227-31.915l14.848-14.933
	l12.117,12.117l-14.933,14.848c-5.274,5.274-8.226,12.425-8.192,19.883v5.12l38.827-19.371l7.68,15.189l-51.2,25.6
	c-1.195,0.597-2.509,0.922-3.84,0.939c-1.596,0-3.166-0.444-4.523-1.28C163.471,329.96,161.96,327.221,161.96,324.269z"/>
<path d="M108.26,213.352c-1.425,0-2.842-0.026-4.275-0.085c-28.851-1.143-55.526-13.457-75.119-34.671S-0.881,129.811,0.262,100.96
	C4.025,45.527,48.527,2.289,103.806,0.13c5.897-0.23,11.819,0.026,17.664,0.734c26.121,3.482,52.506,3.49,78.515,0.009
	c7.356-1.041,14.882-1.152,22.289-0.324c39.723,4.446,70.844,35.251,75.691,74.931c0.367,3.345,0.529,6.605,0.512,9.856
	c-0.35,46.959-38.656,84.915-85.521,84.915c-0.324,0-0.657,0-0.981,0c-10.163,0-19.874,4.028-26.897,11.076
	C164.793,201.815,137,213.352,108.26,213.352z M108.03,17.111c-1.186,0-2.372,0.026-3.558,0.068
	c-46.541,1.818-84.011,38.229-87.159,84.702c-1.98,49.92,37.205,92.339,87.356,94.336c25.344,0.922,50.355-8.789,68.301-26.906
	c10.342-10.385,24.73-15.932,39.279-16.119c0.171,0,0.341,0,0.512,0c37.717,0,68.369-30.379,68.651-67.959
	c0.017-2.594-0.111-5.197-0.393-7.791c-3.866-31.676-28.809-56.363-60.629-59.921l0,0c-5.982-0.666-12.058-0.572-18.057,0.273
	c-27.597,3.678-55.501,3.678-83.012,0.009C115.616,17.342,111.818,17.111,108.03,17.111z"/>
<path d="M106.784,167.537c-33.562,0-60.868-27.307-60.868-60.868S73.222,45.8,106.784,45.8s60.868,27.307,60.868,60.868
	S140.345,167.537,106.784,167.537z M106.784,62.867c-24.149,0-43.802,19.652-43.802,43.802c0,24.158,19.652,43.802,43.802,43.802
	c24.158,0,43.802-19.652,43.802-43.802S130.942,62.867,106.784,62.867z"/>
<path d="M217.427,119.469c-21.171,0-38.4-17.229-38.4-38.4s17.229-38.4,38.4-38.4s38.4,17.229,38.4,38.4
	S238.607,119.469,217.427,119.469z M217.427,59.735c-11.759,0-21.333,9.574-21.333,21.333s9.574,21.333,21.333,21.333
	c11.759,0,21.333-9.574,21.333-21.333S229.194,59.735,217.427,59.735z"/>
<path d="M452.094,512.002H417.96c-3.806,0-7.159-2.526-8.209-6.195l-15.386-53.845c-14.336-1.348-27.759-7.168-38.588-16.768
	H221.694v68.267c0,4.719-3.823,8.533-8.533,8.533h-34.133c-4.105,0-7.629-2.927-8.388-6.955l-13.824-73.728l-46.908-4.693
	l-51.755-8.61c-4.105-0.674-7.125-4.233-7.125-8.405v-42.667c0-3.678,2.347-6.938,5.837-8.09l22.221-7.407l31.113-63.351
	c0.068-0.154,0.145-0.29,0.222-0.435c16.58-39.979,55.1-65.766,98.475-65.783H379.56c58.82,0,106.658,47.838,106.667,106.65l0,0
	c0.034,20.762-5.914,40.798-17.237,58.138l-8.388,117.419C460.286,508.546,456.565,512.002,452.094,512.002z M424.394,494.935
	h19.755l7.876-110.353c-0.145-1.894,0.333-3.806,1.442-5.419c10.3-14.967,15.727-32.469,15.693-50.62c0-0.009,0-0.009,0-0.017
	c0-49.408-40.192-89.6-89.6-89.6H208.894c-36.753,0.017-69.367,22.067-83.081,56.166c-0.213,0.538-0.486,1.058-0.802,1.536
	l-32.188,65.527c-1.007,2.048-2.79,3.618-4.958,4.335l-19.763,6.588v29.295l44.075,7.339l52.71,5.257
	c3.772,0.375,6.835,3.191,7.535,6.921l13.687,73.045h18.517v-68.267c0-4.719,3.823-8.533,8.533-8.533h145.971
	c2.244,0,4.386,0.879,5.982,2.449c9.6,9.429,22.281,14.618,35.712,14.618c0.026,0,0.043,0,0.06,0h0.009
	c3.806,0,7.159,2.526,8.209,6.195L424.394,494.935z"/>
<path d="M452.094,290.135H430.76v-17.067h21.333c11.767,0,21.333-9.566,21.333-21.333c0-21.171,17.229-38.4,38.4-38.4v17.067
	c-11.767,0-21.333,9.574-21.333,21.333C490.494,272.907,473.265,290.135,452.094,290.135z"/>
<path d="M170.494,332.802c-1.562,0-3.115-0.427-4.489-1.271c-2.509-1.562-4.045-4.301-4.045-7.262v-18.961
	c0-12.058,4.693-23.398,13.227-31.923l14.874-14.882l12.075,12.066l-14.874,14.882c-5.316,5.308-8.235,12.356-8.226,19.857v5.154
	l38.852-19.422l7.637,15.266l-51.2,25.6C173.113,332.503,171.799,332.802,170.494,332.802z"/>
<g>
</g>
<g>
</g>
<g>
</g>
<g>
</g>
<g>
</g>
<g>
</g>
<g>
</g>
<g>
</g>
<g>
</g>
<g>
</g>
<g>
</g>
<g>
</g>
<g>
</g>
<g>
</g>
<g>
</g>
</svg>
