<?xml version="1.0" encoding="iso-8859-1"?>
<!-- Generator: Adobe Illustrator 18.0.0, SVG Export Plug-In . SVG Version: 6.00 Build 0)  -->
<!DOCTYPE svg PUBLIC "-//W3C//DTD SVG 1.1//EN" "http://www.w3.org/Graphics/SVG/1.1/DTD/svg11.dtd">
<svg version="1.1" id="Capa_1" xmlns="http://www.w3.org/2000/svg" xmlns:xlink="http://www.w3.org/1999/xlink" x="0px" y="0px"
	 viewBox="0 0 228.293 228.293" style="enable-background:new 0 0 228.293 228.293;" xml:space="preserve">
<g>
	<path d="M43.363,178.604c0,27.398,22.291,49.689,49.69,49.689c27.398,0,49.688-22.291,49.688-49.689V28.594
		c0-7.496,6.099-13.594,13.595-13.594c7.496,0,13.594,6.098,13.594,13.594c0,4.143,3.357,7.5,7.5,7.5c4.143,0,7.5-3.357,7.5-7.5
		C184.93,12.828,172.103,0,156.336,0c-15.768,0-28.595,12.828-28.595,28.594v142.51H50.863
		C46.721,171.104,43.363,174.461,43.363,178.604z M126.925,186.104c-3.437,15.535-17.319,27.189-33.872,27.189
		c-16.554,0-30.437-11.654-33.873-27.189H126.925z"/>
</g>
<g>
</g>
<g>
</g>
<g>
</g>
<g>
</g>
<g>
</g>
<g>
</g>
<g>
</g>
<g>
</g>
<g>
</g>
<g>
</g>
<g>
</g>
<g>
</g>
<g>
</g>
<g>
</g>
<g>
</g>
</svg>
