<?xml version="1.0" encoding="iso-8859-1"?>
<!-- Generator: Adobe Illustrator 19.0.0, SVG Export Plug-In . SVG Version: 6.00 Build 0)  -->
<svg version="1.1" id="Capa_1" xmlns="http://www.w3.org/2000/svg" xmlns:xlink="http://www.w3.org/1999/xlink" x="0px" y="0px"
	 viewBox="0 0 468.403 468.403" style="enable-background:new 0 0 468.403 468.403;" xml:space="preserve">
<polygon style="fill:#EBF0F3;" points="321.561,2.672 321.561,465.969 0,465.969 0,86.964 84.293,2.672 "/>
<polygon style="fill:#64798A;" points="84.293,2.672 84.293,86.964 0,86.964 "/>
<g>
	<rect x="27.473" y="115.686" style="fill:#D5D6DB;" width="266.615" height="12.488"/>
	<rect x="27.473" y="173.755" style="fill:#D5D6DB;" width="266.615" height="12.488"/>
	<rect x="27.473" y="231.823" style="fill:#D5D6DB;" width="266.615" height="12.488"/>
	<rect x="27.473" y="289.891" style="fill:#D5D6DB;" width="266.615" height="12.488"/>
	<rect x="27.473" y="347.959" style="fill:#D5D6DB;" width="266.615" height="12.488"/>
	<rect x="27.473" y="406.652" style="fill:#D5D6DB;" width="266.615" height="12.488"/>
	<rect x="112.39" y="49.501" style="fill:#D5D6DB;" width="181.698" height="12.488"/>
</g>
<path style="fill:#3A556A;" d="M254.127,410.398c-1.873-0.624-2.498-3.122-1.873-4.371l6.244-14.361
	c0.624-1.873,3.122-2.498,4.371-1.873c1.249,0.624,2.498,3.122,1.873,4.371l-6.244,14.361
	C257.873,410.398,256,411.647,254.127,410.398z"/>
<polygon style="fill:#E56353;" points="264.117,399.784 315.941,342.34 316.566,333.599 262.244,311.745 259.122,318.613 
	254.751,396.038 "/>
<rect x="226.218" y="207.249" transform="matrix(-0.3827 0.9239 -0.9239 -0.3827 670.5234 28.2878)" style="fill:#F6C358;" width="199.186" height="61.816"/>
<path style="fill:#FCD462;" d="M390.868,166.886l-61.815-25.6l54.322-131.122c2.498-6.244,9.99-9.366,16.234-6.868l38.712,16.234
	c6.244,2.498,9.366,9.99,6.868,16.234L390.868,166.886z"/>
<path style="fill:#E56353;" d="M463.922,38.886c-3.746-1.249-8.117,0-9.366,3.746c-0.624,1.873-0.624,3.746,0,5.62l-4.371,10.615
	l-73.678-30.595l-5.62,13.112l73.678,30.595l-28.722,69.307l8.741,3.746l28.722-69.307l0,0l5.62-13.112l0,0l4.371-10.615
	c1.873-0.624,3.122-1.873,4.371-3.746C469.541,44.506,467.668,40.135,463.922,38.886z"/>
<g>
	
		<rect x="381.471" y="70.591" transform="matrix(-0.3827 0.9239 -0.9239 -0.3827 619.3444 -225.1916)" style="fill:#F6C358;" width="6.868" height="47.455"/>
	
		<rect x="373.504" y="90.358" transform="matrix(-0.3827 0.9239 -0.9239 -0.3827 626.5896 -190.5)" style="fill:#F6C358;" width="6.868" height="47.455"/>
	
		<rect x="365.512" y="110.124" transform="matrix(-0.3827 0.9239 -0.9239 -0.3827 633.8003 -155.7852)" style="fill:#F6C358;" width="6.868" height="47.455"/>
</g>
<g>
</g>
<g>
</g>
<g>
</g>
<g>
</g>
<g>
</g>
<g>
</g>
<g>
</g>
<g>
</g>
<g>
</g>
<g>
</g>
<g>
</g>
<g>
</g>
<g>
</g>
<g>
</g>
<g>
</g>
</svg>
