<?xml version="1.0" encoding="iso-8859-1"?>
<!-- Generator: Adobe Illustrator 19.0.0, SVG Export Plug-In . SVG Version: 6.00 Build 0)  -->
<svg version="1.1" id="Capa_1" xmlns="http://www.w3.org/2000/svg" xmlns:xlink="http://www.w3.org/1999/xlink" x="0px" y="0px"
	 viewBox="0 0 512.023 512.023" style="enable-background:new 0 0 512.023 512.023;" xml:space="preserve">
<rect x="424.394" y="40.793" transform="matrix(-0.7071 -0.7071 0.7071 -0.7071 699.7434 434.2228)" style="fill:#FBBF00;" width="30.817" height="62.794"/>
<rect x="370.507" y="3.034" transform="matrix(-0.962 -0.2729 0.2729 -0.962 747.7901 172.8706)" style="fill:#FFDB0C;" width="30.819" height="62.798"/>
<rect x="462.201" y="94.725" transform="matrix(-0.2729 -0.962 0.962 -0.2729 486.6048 620.0253)" style="fill:#FFA900;" width="30.819" height="62.798"/>
<path style="fill:#63BC00;" d="M285.75,318.023L285.75,318.023c13.567-41.235,36.626-78.709,67.322-109.405l34.474-34.474
	l-49.688-49.688l-34.474,34.474c-30.696,30.696-68.169,53.755-109.405,67.322l0,0c-41.235,13.567-78.709,36.626-109.405,67.322
	L0,378.148l133.854,133.854l84.575-84.575C249.124,396.731,272.184,359.258,285.75,318.023z"/>
<path style="fill:#00AC00;" d="M285.75,318.023L285.75,318.023c13.567-41.235,36.626-78.709,67.322-109.405l34.474-34.474
	L362.703,149.3L66.926,445.075l66.926,66.926l84.575-84.575C249.124,396.731,272.184,359.258,285.75,318.023z"/>
<rect x="332.783" y="107.935" transform="matrix(-0.7071 0.7071 -0.7071 -0.7071 722.4902 3.8493)" style="fill:#BA7400;" width="55.329" height="87.244"/>
<rect x="348.205" y="145.156" transform="matrix(-0.7071 0.7071 -0.7071 -0.7071 759.7133 19.2497)" style="fill:#804D00;" width="55.329" height="43.622"/>
<path style="fill:#EBEBEC;" d="M84.575,293.573l-32.022,32.021l133.854,133.854l32.022-32.022
	c15.447-15.447,28.957-32.611,40.299-51.106L135.681,253.273C117.186,264.616,100.022,278.127,84.575,293.573z"/>
<path style="fill:#E2E2E6;" d="M119.481,392.522l66.926,66.926l32.022-32.022c15.447-15.447,28.957-32.611,40.299-51.106
	l-61.523-61.523C181.556,330.446,119.481,392.522,119.481,392.522z"/>
<g>
</g>
<g>
</g>
<g>
</g>
<g>
</g>
<g>
</g>
<g>
</g>
<g>
</g>
<g>
</g>
<g>
</g>
<g>
</g>
<g>
</g>
<g>
</g>
<g>
</g>
<g>
</g>
<g>
</g>
</svg>
