<?xml version="1.0" encoding="iso-8859-1"?>
<!-- Generator: Adobe Illustrator 19.0.0, SVG Export Plug-In . SVG Version: 6.00 Build 0)  -->
<svg version="1.1" id="Capa_1" xmlns="http://www.w3.org/2000/svg" xmlns:xlink="http://www.w3.org/1999/xlink" x="0px" y="0px"
	 viewBox="0 0 512 512" style="enable-background:new 0 0 512 512;" xml:space="preserve">
<path style="fill:#F1BBC5;" d="M375.854,64.549L321.703,118.7c-11.147,11.198-26.31,17.486-42.111,17.443h-37.218
	c-20.319-0.06-39.822,8.024-54.151,22.43L7.476,339.328c-9.964,9.972-9.964,26.122,0,36.095l129.089,129.098
	c9.964,9.973,26.131,9.973,36.103,0l0,0l180.755-180.755c14.406-14.329,22.489-33.823,22.43-54.142v-37.218
	c-0.043-15.801,6.237-30.964,17.443-42.111l54.151-54.151L375.854,64.549z"/>
<rect x="84.167" y="236.315" transform="matrix(-0.7071 0.7071 -0.7071 -0.7071 520.8842 490.4913)" style="fill:#D9415D;" width="149.382" height="233.619"/>
<g>
	<path style="fill:#E88D9E;" d="M375.854,64.549L321.703,118.7c-11.147,11.198-26.31,17.486-42.111,17.443h-37.218
		c-9.164,0.008-18.243,1.668-26.82,4.893l155.407,155.407c3.225-8.577,4.884-17.656,4.893-26.82v-37.218
		c-0.043-15.801,6.237-30.964,17.443-42.111l54.151-54.151L375.854,64.549z"/>
	
		<rect x="441.847" y="25.531" transform="matrix(-0.7071 0.7071 -0.7071 -0.7071 839.9755 -279.8487)" style="fill:#E88D9E;" width="72.198" height="17.018"/>
	<path style="fill:#E88D9E;" d="M432.923,40.052L420.892,28.02l7.054-7.045c4.799-4.782,7.488-11.283,7.471-18.056V0h17.018v2.919
		c0.034,11.291-4.45,22.123-12.457,30.088L432.923,40.052z"/>
	<path style="fill:#E88D9E;" d="M483.977,91.105l-12.032-12.032l7.054-7.045c7.956-8.007,18.788-12.491,30.079-12.466h2.919V76.58
		h-2.919c-6.765,0.017-13.248,2.706-18.047,7.479L483.977,91.105z"/>
</g>
<circle style="fill:#653A4B;" cx="299.256" cy="212.724" r="42.545"/>
<path style="fill:#D9415D;" d="M475.468,113.109l-76.58-76.58c-3.318-3.318-8.713-3.318-12.032,0l-25.527,25.527
	c-3.318,3.327-3.318,8.713,0,12.032l76.58,76.58c3.318,3.318,8.713,3.318,12.032,0l25.527-25.527
	C478.786,121.823,478.786,116.436,475.468,113.109z"/>
<g>
</g>
<g>
</g>
<g>
</g>
<g>
</g>
<g>
</g>
<g>
</g>
<g>
</g>
<g>
</g>
<g>
</g>
<g>
</g>
<g>
</g>
<g>
</g>
<g>
</g>
<g>
</g>
<g>
</g>
</svg>
