<?xml version="1.0" encoding="iso-8859-1"?>
<!-- Generator: Adobe Illustrator 19.0.0, SVG Export Plug-In . SVG Version: 6.00 Build 0)  -->
<svg version="1.1" id="Layer_1" xmlns="http://www.w3.org/2000/svg" xmlns:xlink="http://www.w3.org/1999/xlink" x="0px" y="0px"
	 viewBox="0 0 512.001 512.001" style="enable-background:new 0 0 512.001 512.001;" xml:space="preserve">
<path style="fill:#57565C;" d="M341.682,318.694l-25.328,112.41c15.047,7.837,25.328,23.573,25.328,41.712
	c0,12.037-4.535,23.03-11.975,31.347H182.293c-7.44-8.317-11.975-19.31-11.975-31.347c0-12.978,5.266-24.743,13.772-33.249
	c3.375-3.375,7.283-6.238,11.557-8.464l-25.328-112.41V193.306l47.94-101.878h75.483l47.94,101.878V318.694z"/>
<path style="fill:#3E3D42;" d="M341.682,193.306l-47.94-101.878h-20.898l47.94,101.878v125.388l-25.328,112.41
	c15.047,7.837,25.328,23.573,25.328,41.712c0,12.037-4.535,23.03-11.975,31.347h20.898c7.44-8.317,11.975-19.31,11.975-31.347
	c0-18.139-10.282-33.876-25.328-41.712l25.328-112.41V193.306z"/>
<path style="fill:#7F7E89;" d="M170.319,193.306l47.94-101.878h20.898l-47.94,101.878v125.388l25.328,112.41
	c-15.047,7.837-25.328,23.573-25.328,41.712c0,12.037,4.535,23.03,11.975,31.347h-20.898c-7.44-8.317-11.975-19.31-11.975-31.347
	c0-18.139,10.282-33.876,25.328-41.712l-25.328-112.41V193.306z"/>
<rect x="170.319" y="193.306" style="fill:#FF505D;" width="171.363" height="125.388"/>
<rect x="320.784" y="193.306" style="fill:#E21220;" width="20.898" height="125.388"/>
<rect x="170.319" y="193.306" style="fill:#FF7C80;" width="20.898" height="125.388"/>
<path style="fill:#FFFFFF;" d="M219.429,318.694c0-62.694,83.592-62.694,83.592-125.388h-52.245
	c0,62.694-41.796,62.694-41.796,125.388"/>
<rect x="222.041" y="7.837" style="fill:#FF505D;" width="67.918" height="52.245"/>
<rect x="269.062" y="7.837" style="fill:#E21220;" width="20.898" height="52.245"/>
<circle cx="304.526" cy="368.41" r="7.837"/>
<circle cx="294.077" cy="399.757" r="7.837"/>
<circle cx="283.429" cy="344.9" r="7.837"/>
<circle cx="305.633" cy="169.796" r="7.837"/>
<circle cx="284.735" cy="138.449" r="7.837"/>
<path d="M349.519,191.555L291.337,67.918h6.46V0h-83.592v67.918h6.46l-58.182,123.637v128.012l24.273,107.714
	c-2.95,1.979-5.696,4.236-8.207,6.747c-10.36,10.361-16.066,24.137-16.066,38.79c0,13.513,4.961,26.5,13.97,36.571l2.336,2.612
	h154.422l2.336-2.612c9.009-10.072,13.97-23.059,13.97-36.571c0-18.461-9.164-35.406-24.273-45.537l24.273-107.713V191.555H349.519z
	 M229.878,15.673h52.245v36.571h-52.245V15.673z M281.391,83.592H230.61l7.376-15.673h36.029L281.391,83.592z M223.235,99.265
	h65.532l40.566,86.204H182.668L223.235,99.265z M294.651,201.143c-3.095,22.301-19.463,34.588-38.128,48.588
	c-10.445,7.834-21.577,16.189-30.149,26.92c3.013-5.78,6.484-10.991,10.025-16.304c10.039-15.059,20.386-30.6,21.992-59.204H294.651
	z M178.156,201.143h64.535c-1.556,23.842-10.215,36.834-19.334,50.51c-10.039,15.059-20.386,30.6-21.992,59.204h-23.209V201.143z
	 M307.379,435.264l5.35,2.788c13.026,6.787,21.116,20.108,21.116,34.765c0,8.52-2.763,16.749-7.837,23.51H185.992
	c-5.074-6.762-7.837-14.99-7.837-23.51c0-10.467,4.075-20.307,11.475-27.708c2.401-2.401,5.125-4.457,8.084-6.17h55.942v-15.673
	h-51.739l-21.8-96.735h151.765L307.379,435.264z M333.845,310.857H227.799c3.095-22.301,19.463-34.588,38.128-48.588
	c19.437-14.578,41.254-30.963,44.502-61.127h23.416V310.857z"/>
<g>
</g>
<g>
</g>
<g>
</g>
<g>
</g>
<g>
</g>
<g>
</g>
<g>
</g>
<g>
</g>
<g>
</g>
<g>
</g>
<g>
</g>
<g>
</g>
<g>
</g>
<g>
</g>
<g>
</g>
</svg>
