<?xml version="1.0" encoding="iso-8859-1"?>
<!-- Generator: Adobe Illustrator 19.0.0, SVG Export Plug-In . SVG Version: 6.00 Build 0)  -->
<svg version="1.1" id="Capa_1" xmlns="http://www.w3.org/2000/svg" xmlns:xlink="http://www.w3.org/1999/xlink" x="0px" y="0px"
	 viewBox="0 0 512 512" style="enable-background:new 0 0 512 512;" xml:space="preserve">
<path style="fill:#62BEFF;" d="M233.755,132.414h-8.651c-29.043,0-29.043-17.655-58.086-17.655s-29.131,17.655-58.174,17.655
	c-28.16,0-29.043-16.596-55.526-17.567c4.529-10.196,12.2-18.67,21.892-24.188l26.218-14.919c5.517-3.143,8.925-9.013,8.916-15.36
	V44.138h61.793v16.243c-0.009,6.347,3.399,12.217,8.916,15.36l26.218,14.919C222.438,99.363,232.342,114.979,233.755,132.414z"/>
<path style="fill:#168DE2;" d="M233.931,328.474v157.043c0,14.627-11.855,26.483-26.483,26.483l0,0H75.035
	c-14.627,0-26.483-11.855-26.483-26.483l0,0V328.474c0.009-8.872,4.449-17.152,11.829-22.069l2.825-1.854
	c7.38-4.917,11.82-13.197,11.829-22.069v-24.629c-0.009-8.872-4.449-17.152-11.829-22.069l-2.825-1.854
	c-7.38-4.917-11.82-13.197-11.829-22.069v-75.211c-0.009-7.53,1.624-14.963,4.767-21.804c26.483,0.971,27.366,17.567,55.526,17.567
	c29.043,0,29.043-17.655,58.174-17.655s29.043,17.655,58.086,17.655h8.651c0.088,1.412,0.177,2.825,0.177,4.237v75.211
	c-0.009,8.872-4.449,17.152-11.829,22.069l-2.825,1.854c-7.38,4.917-11.82,13.197-11.829,22.069v24.629
	c0.009,8.872,4.449,17.152,11.829,22.069l2.825,1.854C229.482,311.322,233.922,319.603,233.931,328.474z"/>
<path style="fill:#002874;" d="M101.517,0h79.448c4.873,0,8.828,3.955,8.828,8.828v35.31l0,0H92.69l0,0V8.828
	C92.69,3.955,96.644,0,101.517,0z"/>
<g>
	<rect x="75.035" y="185.379" style="fill:#62BEFF;" width="132.414" height="17.655"/>
	<rect x="75.035" y="326.621" style="fill:#62BEFF;" width="132.414" height="17.655"/>
	<rect x="101.517" y="256" style="fill:#62BEFF;" width="26.483" height="17.655"/>
	<rect x="154.483" y="256" style="fill:#62BEFF;" width="26.483" height="17.655"/>
	<rect x="75.035" y="467.862" style="fill:#62BEFF;" width="132.414" height="17.655"/>
	<rect x="75.035" y="397.241" style="fill:#62BEFF;" width="132.414" height="17.655"/>
	<path style="fill:#62BEFF;" d="M463.448,317.793l-3.972,43.961c-22.599-1.677-23.923-17.479-48.993-17.479
		c-26.483,0-26.483,17.655-52.966,17.655c-25.688,0-26.483-16.596-50.582-17.567l-2.383-26.571H463.448z"/>
</g>
<path style="fill:#168DE2;" d="M459.476,361.754L445.793,512H322.207l-15.272-167.636c24.099,0.971,24.894,17.567,50.582,17.567
	c26.483,0,26.483-17.655,52.966-17.655C435.553,344.276,436.877,360.077,459.476,361.754z"/>
<g>
	<rect x="339.862" y="388.414" style="fill:#62BEFF;" width="17.655" height="17.655"/>
	<rect x="384" y="379.586" style="fill:#62BEFF;" width="17.655" height="17.655"/>
	<rect x="410.483" y="406.069" style="fill:#62BEFF;" width="17.655" height="17.655"/>
</g>
<g>
</g>
<g>
</g>
<g>
</g>
<g>
</g>
<g>
</g>
<g>
</g>
<g>
</g>
<g>
</g>
<g>
</g>
<g>
</g>
<g>
</g>
<g>
</g>
<g>
</g>
<g>
</g>
<g>
</g>
</svg>
